<?xml version="1.0" encoding="utf-8"?>
<!-- Generator: Adobe Illustrator 19.2.0, SVG Export Plug-In . SVG Version: 6.00 Build 0)  -->
<svg version="1.1" id="Layer_1" xmlns="http://www.w3.org/2000/svg" xmlns:xlink="http://www.w3.org/1999/xlink" x="0px" y="0px"
	 viewBox="0 0 218.8 234.1" style="enable-background:new 0 0 218.8 234.1;" xml:space="preserve">
<style type="text/css">
	.st0{fill:#07B8B6;}
	.st1{fill:#FFFFFF;}
	.st2{fill:#690A52;}
</style>
<g id="XMLID_110_">
	
		<ellipse transform="matrix(4.130659e-03 -1 1 4.130659e-03 -8.312 226.2983)" class="st0" cx="109.5" cy="117.3" rx="109.4" ry="109.4"/>
</g>
<g id="XMLID_477_">
	<g id="XMLID_350_">
		<circle class="st1" cx="44.8" cy="130" r="17.7"/>
	</g>
	<g id="XMLID_618_">
		<path class="st1" d="M78.2,207c0-4-0.1-9.3-0.6-15.9c-1.4-18-23.3-40.9-23.3-40.9h-3.6H38.9h-3.6c0,0-21.9,22.9-23.3,40.9
			c-0.5,6.6-0.6,11.9-0.6,15.9v0.1v12.2c0,1.6,1.3,2.9,2.9,2.9h61c1.6,0,2.9-1.3,2.9-2.9v-12.2C78.2,207.1,78.2,207.1,78.2,207z"/>
	</g>
	<g id="XMLID_557_">
		<circle class="st1" cx="172.7" cy="128.3" r="17.7"/>
	</g>
	<g id="XMLID_529_">
		<path class="st1" d="M206.1,205.3c0-4-0.1-9.3-0.6-15.9c-1.4-18-23.3-40.9-23.3-40.9h-3.6h-11.7h-3.6c0,0-21.9,22.9-23.3,40.9
			c-0.5,6.6-0.6,11.9-0.6,15.9v0.1v12.2c0,1.6,1.3,2.9,2.9,2.9h61c1.6,0,2.9-1.3,2.9-2.9L206.1,205.3
			C206.1,205.4,206.1,205.4,206.1,205.3z"/>
	</g>
</g>
<g id="XMLID_20_">
	<g id="XMLID_1_">
		<circle class="st2" cx="109.3" cy="117.4" r="22"/>
	</g>
	<g id="XMLID_616_">
		<path class="st1" d="M121.5,2.7h43.9c18.2,0,33,16.5,33,36.7l0,0c0,20.2-14.9,36.7-33,36.7H137l-10.6,12.6l-1.3-22.3
			c-16.8-1.6-36.7-7.8-36.7-26.9l0,0C88.5,19.2,103.3,2.7,121.5,2.7z"/>
	</g>
	<g id="XMLID_615_">
		<path class="st2" d="M120.6,0h43.9c18.2,0,33,16.5,33,36.7l0,0c0,20.2-14.9,36.7-33,36.7h-29.9l-8.2,16.3l-8.7-16.4
			c-16.8-1.6-30.1-17.4-30.1-36.5l0,0C87.6,16.5,102.5,0,120.6,0z"/>
	</g>
	<g id="XMLID_599_">
		<g id="XMLID_604_">
			<path class="st1" d="M125.4,36.3c0-2.2,1.5-3.7,3.5-3.7c2.1,0,3.5,1.5,3.5,3.7c0,2.1-1.4,3.7-3.5,3.7
				C126.8,40,125.4,38.4,125.4,36.3z"/>
		</g>
		<g id="XMLID_602_">
			<path class="st1" d="M140.5,36.3c0-2.2,1.5-3.7,3.5-3.7c2.1,0,3.5,1.5,3.5,3.7c0,2.1-1.4,3.7-3.5,3.7S140.5,38.4,140.5,36.3z"/>
		</g>
		<g id="XMLID_600_">
			<path class="st1" d="M154.6,36.3c0-2.2,1.5-3.7,3.5-3.7c2.1,0,3.5,1.5,3.5,3.7c0,2.1-1.4,3.7-3.5,3.7S154.6,38.4,154.6,36.3z"/>
		</g>
	</g>
	<g id="XMLID_617_">
		<path class="st2" d="M146.8,215.1c0.1-5.1-0.1-11.9-0.7-20.6c-1.5-22.8-26.1-51.8-26.1-51.8h-4.1h-13.2h-4.1
			c0,0-24.6,29-26.1,51.8c-1,15.1-0.7,24.6-0.3,29.3v7.5c0,1.6,1.2,2.9,2.6,2.9h69.4c1.4,0,2.6-1.3,2.6-2.9v-15.9
			C146.8,215.2,146.8,215.1,146.8,215.1z"/>
	</g>
</g>
</svg>
