<?xml version="1.0" encoding="utf-8"?>
<!-- Generator: Adobe Illustrator 19.2.0, SVG Export Plug-In . SVG Version: 6.00 Build 0)  -->
<svg version="1.1" id="Layer_1" xmlns="http://www.w3.org/2000/svg" xmlns:xlink="http://www.w3.org/1999/xlink" x="0px" y="0px"
	 viewBox="0 0 221.7 221.7" style="enable-background:new 0 0 221.7 221.7;" xml:space="preserve">
<style type="text/css">
	.st0{fill:#FFFFFF;}
	.st1{fill:#EEEEEE;}
	.st2{fill:#690A52;}
</style>
<ellipse id="XMLID_584_" transform="matrix(4.129964e-03 -1 1 4.129964e-03 -0.3227 221.266)" class="st0" cx="110.9" cy="110.8" rx="110.8" ry="110.8"/>
<g id="XMLID_20_">
	
		<ellipse id="XMLID_94_" transform="matrix(0.2242 -0.9745 0.9745 0.2242 -15.0672 171.1401)" class="st1" cx="100" cy="95" rx="42.8" ry="42.8"/>
	<path id="XMLID_92_" class="st2" d="M171.1,176.1l-6.2,5.1c-2.9,2.4-7.3,2-9.7-0.9l-33.6-40.6c-2.4-2.9-2-7.3,0.9-9.7l6.2-5.1
		c2.9-2.4,7.3-2,9.7,0.9l33.6,40.6C174.4,169.3,174,173.7,171.1,176.1z"/>
	<g id="XMLID_29_">
		<path id="XMLID_57_" class="st2" d="M99.8,144.4c-3.8,0-7.5-0.4-11.3-1.3c-13-3-24.1-10.9-31.2-22.2S48,96.2,51,83.2l0,0
			c3-13,10.9-24.1,22.2-31.2s24.7-9.3,37.7-6.3s24.1,10.9,31.2,22.2c7.1,11.3,9.3,24.7,6.3,37.7s-10.9,24.1-22.2,31.2
			C118.2,141.8,109.1,144.4,99.8,144.4z M99.6,53c-7.7,0-15.2,2.1-21.8,6.3c-9.4,5.9-15.9,15-18.3,25.8c-2.5,10.8-0.6,21.8,5.2,31.2
			c5.9,9.4,15,15.9,25.8,18.3c10.8,2.5,21.8,0.6,31.2-5.2c9.4-5.9,15.9-15,18.3-25.8c2.5-10.8,0.6-21.8-5.2-31.2
			c-5.9-9.4-15-15.9-25.8-18.3C105.9,53.4,102.7,53,99.6,53z"/>
	</g>
</g>
</svg>
