<?xml version="1.0" encoding="utf-8"?>
<!-- Generator: Adobe Illustrator 19.2.0, SVG Export Plug-In . SVG Version: 6.00 Build 0)  -->
<svg version="1.1" id="Layer_1" xmlns="http://www.w3.org/2000/svg" xmlns:xlink="http://www.w3.org/1999/xlink" x="0px" y="0px"
	 viewBox="0 0 219.4 217.3" style="enable-background:new 0 0 219.4 217.3;" xml:space="preserve">
<style type="text/css">
	.st0{fill:#07B8B6;}
	.st1{fill:#FFFFFF;}
	.st2{fill:#585A5A;}
	.st3{fill:#353635;}
	.st4{fill:#690A52;}
</style>
<g id="XMLID_425_">
	
		<ellipse transform="matrix(4.130593e-03 -1 1 4.130593e-03 -1.3482 219.7501)" class="st0" cx="109.7" cy="110.6" rx="106.7" ry="106.7"/>
</g>
<g id="XMLID_129_">
	<g id="XMLID_131_">
		<path id="XMLID_334_" class="st1" d="M188.9,179.7H30.5c-2.4,0-4.3-1.9-4.3-4.3V62.7c0-2.4,1.9-4.3,4.3-4.3h158.4
			c2.4,0,4.3,1.9,4.3,4.3v112.7C193.2,177.7,191.3,179.7,188.9,179.7z"/>
		<path id="XMLID_335_" class="st2" d="M188.9,183.3H30.5c-4.4,0-7.9-3.6-7.9-7.9V62.7c0-4.4,3.6-7.9,7.9-7.9h158.4
			c4.4,0,7.9,3.6,7.9,7.9v112.7C196.8,179.7,193.3,183.3,188.9,183.3z M30.5,62c-0.4,0-0.7,0.3-0.7,0.7v112.7c0,0.4,0.3,0.7,0.7,0.7
			h158.4c0.4,0,0.7-0.3,0.7-0.7V62.7c0-0.4-0.3-0.7-0.7-0.7H30.5z"/>
	</g>
	<g id="XMLID_130_">
		<path class="st3" d="M214.1,188H5.3c-2.9,0-5.3-2.4-5.3-5.3v-12.3c0-2.9,2.4-5.3,5.3-5.3h208.8c2.9,0,5.3,2.4,5.3,5.3v12.3
			C219.4,185.6,217,188,214.1,188z"/>
	</g>
</g>
<g id="XMLID_108_">
	<g id="XMLID_128_">
		
			<ellipse transform="matrix(2.551241e-02 -0.9997 0.9997 2.551241e-02 59.2317 290.9747)" class="st4" cx="178.9" cy="115.1" rx="21.9" ry="21.9"/>
	</g>
	<g id="XMLID_127_">
		
			<ellipse transform="matrix(2.551246e-02 -0.9997 0.9997 2.551246e-02 45.6453 186.6315)" class="st4" cx="118.6" cy="69.9" rx="21.9" ry="21.9"/>
	</g>
	<g id="XMLID_115_">
		
			<ellipse transform="matrix(2.551247e-02 -0.9997 0.9997 2.551247e-02 154.3575 202.2128)" class="st4" cx="180.9" cy="21.9" rx="21.9" ry="21.9"/>
	</g>
	<g id="XMLID_112_">
		<path id="XMLID_330_" class="st4" d="M168.2,112.5L168.2,112.5c-0.7,1-2.2,1.3-3.2,0.5l-42.9-30.8c-1-0.7-1.3-2.2-0.5-3.2l0,0
			c0.7-1,2.2-1.3,3.2-0.5l42.9,30.8C168.7,110,169,111.4,168.2,112.5z"/>
		<path id="XMLID_331_" class="st4" d="M166.3,114.4c-0.7,0-1.4-0.2-1.9-0.6L121.5,83c-1.5-1.1-1.8-3.1-0.8-4.6
			c1.1-1.5,3.1-1.8,4.6-0.8l42.9,30.8c0.7,0.5,1.2,1.3,1.3,2.2c0.1,0.9-0.1,1.8-0.6,2.5s-1.3,1.2-2.2,1.3
			C166.7,114.4,166.5,114.4,166.3,114.4z M123.5,79c-0.4,0-0.8,0.2-1.1,0.5c-0.4,0.6-0.3,1.4,0.3,1.8l42.9,30.8
			c0.3,0.2,0.6,0.3,1,0.2c0.3-0.1,0.7-0.2,0.9-0.5l0,0c0.2-0.3,0.3-0.6,0.2-1c-0.1-0.3-0.2-0.7-0.5-0.9l-42.9-30.8
			C124,79.1,123.7,79,123.5,79z"/>
	</g>
	<g id="XMLID_109_">
		<path id="XMLID_121_" class="st4" d="M177.1,23.6L177.1,23.6c0.7,1.1,0.4,2.5-0.6,3.2l-43.6,29.8c-1.1,0.7-2.5,0.4-3.2-0.6l0,0
			c-0.7-1.1-0.4-2.5,0.6-3.2L173.9,23C175,22.2,176.4,22.5,177.1,23.6z"/>
		<path id="XMLID_124_" class="st4" d="M131.6,58c-1.1,0-2.1-0.5-2.7-1.4c-1-1.5-0.6-3.6,0.9-4.6l43.6-29.8c1.5-1,3.6-0.6,4.6,0.9
			l0,0c0.5,0.7,0.7,1.6,0.5,2.5s-0.7,1.6-1.4,2.1l-43.6,29.8C132.9,57.8,132.3,58,131.6,58z M175.2,23.5c-0.3,0-0.5,0.1-0.7,0.2
			l-43.6,29.8c-0.6,0.4-0.8,1.2-0.3,1.8c0.4,0.6,1.2,0.8,1.8,0.3L176,25.9c0.3-0.2,0.5-0.5,0.5-0.8c0.1-0.3,0-0.7-0.2-1
			C176,23.7,175.6,23.5,175.2,23.5z"/>
	</g>
</g>
</svg>
