<?xml version="1.0" encoding="utf-8"?>
<!-- Generator: Adobe Illustrator 19.2.0, SVG Export Plug-In . SVG Version: 6.00 Build 0)  -->
<svg version="1.1" id="Layer_1" xmlns="http://www.w3.org/2000/svg" xmlns:xlink="http://www.w3.org/1999/xlink" x="0px" y="0px"
	 viewBox="0 0 218.8 234.1" style="enable-background:new 0 0 218.8 234.1;" xml:space="preserve">
<style type="text/css">
	.st0{fill:#FFFFFF;}
	.st1{fill:#690A52;}
</style>
<g id="XMLID_110_">
	
		<ellipse transform="matrix(4.130588e-03 -1 1 4.130588e-03 -8.3151 226.295)" class="st0" cx="109.5" cy="117.3" rx="109.4" ry="109.4"/>
</g>
<g id="XMLID_20_">
	<g id="XMLID_1_">
		<circle class="st1" cx="109.3" cy="67.4" r="22"/>
	</g>
	<g id="XMLID_617_">
		<path class="st1" d="M146.8,165.1c0.1-5.1-0.1-11.9-0.7-20.6c-1.5-22.8-26.1-51.8-26.1-51.8h-4.1h-13.2h-4.1
			c0,0-24.6,29-26.1,51.8c-1,15.1-0.7,24.6-0.3,29.3v7.5c0,1.6,1.2,2.9,2.6,2.9h69.4c1.4,0,2.6-1.3,2.6-2.9v-15.9
			C146.8,165.2,146.8,165.1,146.8,165.1z"/>
	</g>
</g>
</svg>
