<?xml version="1.0" encoding="utf-8"?>
<!-- Generator: Adobe Illustrator 19.2.0, SVG Export Plug-In . SVG Version: 6.00 Build 0)  -->
<svg version="1.1" id="Layer_1" xmlns="http://www.w3.org/2000/svg" xmlns:xlink="http://www.w3.org/1999/xlink" x="0px" y="0px"
	 viewBox="0 0 219.4 217.3" style="enable-background:new 0 0 219.4 217.3;" xml:space="preserve">
<style type="text/css">
	.st0{fill:#FFFFFF;}
	.st1{fill:#690A52;}
</style>
<g id="XMLID_425_">
	
		<ellipse transform="matrix(4.130452e-03 -1 1 4.130452e-03 -1.2679 219.7205)" class="st0" cx="109.7" cy="110.5" rx="106.7" ry="106.7"/>
</g>
<g id="XMLID_108_">
	<g id="XMLID_128_">
		
			<ellipse transform="matrix(2.550981e-02 -0.9997 0.9997 2.550981e-02 -28.1664 285.2192)" class="st1" cx="132.2" cy="157.1" rx="21.9" ry="21.9"/>
	</g>
	<g id="XMLID_127_">
		
			<ellipse transform="matrix(2.550986e-02 -0.9997 0.9997 2.550986e-02 -41.7089 180.9418)" class="st1" cx="72" cy="111.9" rx="21.9" ry="21.9"/>
	</g>
	<g id="XMLID_115_">
		
			<ellipse transform="matrix(2.550987e-02 -0.9997 0.9997 2.550987e-02 66.8389 196.44)" class="st1" cx="134.2" cy="63.9" rx="21.9" ry="21.9"/>
	</g>
	<g id="XMLID_112_">
		<path id="XMLID_330_" class="st1" d="M121.5,154.6L121.5,154.6c-0.7,1-2.2,1.3-3.2,0.5l-42.9-30.8c-1-0.7-1.3-2.2-0.5-3.2l0,0
			c0.7-1,2.2-1.3,3.2-0.5l42.9,30.8C122,152.1,122.3,153.5,121.5,154.6z"/>
		<path id="XMLID_331_" class="st1" d="M119.6,156.5c-0.7,0-1.4-0.2-1.9-0.6l-42.9-30.8c-1.5-1.1-1.8-3.1-0.8-4.6
			c1.1-1.5,3.1-1.8,4.6-0.8l42.9,30.8c0.7,0.5,1.2,1.3,1.3,2.2s-0.1,1.8-0.6,2.5s-1.3,1.2-2.2,1.3
			C120,156.5,119.8,156.5,119.6,156.5z M76.8,121.1c-0.4,0-0.8,0.2-1.1,0.5c-0.4,0.6-0.3,1.4,0.3,1.8l42.9,30.8
			c0.3,0.2,0.6,0.3,1,0.2c0.3-0.1,0.7-0.2,0.9-0.5l0,0c0.2-0.3,0.3-0.6,0.2-1c-0.1-0.3-0.2-0.7-0.5-0.9l-42.9-30.8
			C77.3,121.2,77,121.1,76.8,121.1z"/>
	</g>
	<g id="XMLID_109_">
		<path id="XMLID_121_" class="st1" d="M130.4,65.7L130.4,65.7c0.7,1.1,0.4,2.5-0.6,3.2L86.2,98.7c-1.1,0.7-2.5,0.4-3.2-0.6l0,0
			c-0.7-1.1-0.4-2.5,0.6-3.2l43.6-29.8C128.3,64.3,129.7,64.6,130.4,65.7z"/>
		<path id="XMLID_124_" class="st1" d="M84.9,100.1c-1.1,0-2.1-0.5-2.7-1.4c-1-1.5-0.6-3.6,0.9-4.6l43.6-29.8c1.5-1,3.6-0.6,4.6,0.9
			l0,0c0.5,0.7,0.7,1.6,0.5,2.5c-0.2,0.9-0.7,1.6-1.4,2.1L86.8,99.6C86.2,99.9,85.6,100.1,84.9,100.1z M128.5,65.6
			c-0.3,0-0.5,0.1-0.7,0.2L84.2,95.6c-0.6,0.4-0.8,1.2-0.3,1.8c0.4,0.6,1.2,0.8,1.8,0.3L129.3,68c0.3-0.2,0.5-0.5,0.5-0.8
			c0.1-0.3,0-0.7-0.2-1C129.3,65.8,128.9,65.6,128.5,65.6z"/>
	</g>
</g>
</svg>
