<?xml version="1.0" encoding="utf-8"?>
<!-- Generator: Adobe Illustrator 19.2.0, SVG Export Plug-In . SVG Version: 6.00 Build 0)  -->
<svg version="1.1" id="Layer_1" xmlns="http://www.w3.org/2000/svg" xmlns:xlink="http://www.w3.org/1999/xlink" x="0px" y="0px"
	 viewBox="0 0 221.7 221.7" style="enable-background:new 0 0 221.7 221.7;" xml:space="preserve">
<style type="text/css">
	.st0{fill:#07B8B6;}
	.st1{fill:#525252;}
	.st2{fill:#7B7B7B;}
	.st3{fill:#FFFFFF;}
	.st4{fill:#D0CECE;}
	.st5{fill:#B2B2B2;}
	.st6{fill:#EEEEEE;}
	.st7{fill:#690A52;}
</style>
<ellipse id="XMLID_584_" transform="matrix(4.130105e-03 -1 1 4.130105e-03 -0.3658 221.2377)" class="st0" cx="110.9" cy="110.8" rx="110.8" ry="110.8"/>
<path id="XMLID_162_" class="st1" d="M148.4,209.2H76.8c-11.7,0-21.2-9.6-21.2-21.2V33.8c0-11.7,9.6-21.2,21.2-21.2h71.6
	c11.7,0,21.2,9.6,21.2,21.2V188C169.6,199.6,160.1,209.2,148.4,209.2z"/>
<g id="XMLID_106_">
	<path id="XMLID_160_" class="st2" d="M144.9,209.2H68.4c-12,0-21.8-9.8-21.8-21.8V34.3c0-12,9.8-21.8,21.8-21.8h76.5
		c12,0,21.8,9.8,21.8,21.8v153.1C166.7,199.4,156.9,209.2,144.9,209.2z"/>
	<path id="XMLID_158_" class="st3" d="M147.8,190.2H65.5c-6.3,0-11.4-5.1-11.4-11.4V42c0-6.3,5.1-11.4,11.4-11.4h82.3
		c6.3,0,11.4,5.1,11.4,11.4v136.8C159.2,185,154,190.2,147.8,190.2z"/>
	<path id="XMLID_156_" class="st4" d="M117.2,198.3v0.5c0,2.4-1.9,4.3-4.3,4.3h-12.4c-2.4,0-4.3-1.9-4.3-4.3v-0.5
		c0-2.4,1.9-4.3,4.3-4.3h12.4C115.2,194,117.2,196,117.2,198.3z"/>
	<path id="XMLID_155_" class="st5" d="M117.2,199.6v0.5c0,2.4-1.9,4.3-4.3,4.3h-12.4c-2.4,0-4.3-1.9-4.3-4.3v-0.5
		c0-2.4,1.9-4.3,4.3-4.3h12.4C115.2,195.3,117.2,197.2,117.2,199.6z"/>
	<path id="XMLID_126_" class="st3" d="M121.2,24.4h-20.6c-1.1,0-2.1-0.9-2.1-2.1l0,0c0-1.1,0.9-2.1,2.1-2.1h20.6
		c1.1,0,2.1,0.9,2.1,2.1l0,0C123.2,23.4,122.3,24.4,121.2,24.4z"/>
</g>
<g id="XMLID_20_">
	
		<ellipse id="XMLID_94_" transform="matrix(0.2242 -0.9745 0.9745 0.2242 6.8856 220.5994)" class="st6" cx="142" cy="106" rx="42.8" ry="42.8"/>
	<path id="XMLID_92_" class="st7" d="M213.1,187.1l-6.2,5.1c-2.9,2.4-7.3,2-9.7-0.9l-33.6-40.6c-2.4-2.9-2-7.3,0.9-9.7l6.2-5.1
		c2.9-2.4,7.3-2,9.7,0.9l33.6,40.6C216.4,180.3,216,184.7,213.1,187.1z"/>
	<g id="XMLID_29_">
		<path id="XMLID_57_" class="st7" d="M141.8,155.4c-3.8,0-7.5-0.4-11.3-1.3c-13-3-24.1-10.9-31.2-22.2S90,107.2,93,94.2l0,0
			c3-13,10.9-24.1,22.2-31.2s24.7-9.3,37.7-6.3s24.1,10.9,31.2,22.2c7.1,11.3,9.3,24.7,6.3,37.7s-10.9,24.1-22.2,31.2
			C160.2,152.8,151.1,155.4,141.8,155.4z M141.6,64c-7.7,0-15.2,2.1-21.8,6.3c-9.4,5.9-15.9,15-18.3,25.8
			c-2.5,10.8-0.6,21.8,5.2,31.2c5.9,9.4,15,15.9,25.8,18.3c10.8,2.5,21.8,0.6,31.2-5.2c9.4-5.9,15.9-15,18.3-25.8
			c2.5-10.8,0.6-21.8-5.2-31.2c-5.9-9.4-15-15.9-25.8-18.3C147.9,64.4,144.7,64,141.6,64z"/>
	</g>
</g>
</svg>
