<?xml version="1.0" encoding="utf-8"?>
<!-- Generator: Adobe Illustrator 19.2.0, SVG Export Plug-In . SVG Version: 6.00 Build 0)  -->
<svg version="1.1" id="Layer_1" xmlns="http://www.w3.org/2000/svg" xmlns:xlink="http://www.w3.org/1999/xlink" x="0px" y="0px"
	 viewBox="0 0 430 295.7" style="enable-background:new 0 0 430 295.7;" xml:space="preserve">
<style type="text/css">
	.st0{enable-background:new    ;}
	.st1{fill:#691953;}
	.st2{font-family:'RainbowBridgePersonalUse';}
	.st3{font-size:108px;}
	.st4{letter-spacing:6;}
	.st5{font-size:57px;}
</style>
<g class="st0">
	<path class="st1" d="M71.5,100.2c0.3,2,0,3.8-0.8,5.5c-0.8,1.6-2,3-3.5,4c-1.5,1.1-3.2,1.9-5.2,2.3c-1.9,0.5-3.8,0.6-5.6,0.3
		c-2.7-0.4-5.1-1.2-7.2-2.4c-2.2-1.2-4.2-2.5-6-4c-1.9-1.5-3.6-3.2-5.3-5c-1.7-1.8-3.3-3.5-5-5.1c-2.7,2-5.5,3.6-8.5,4.8
		c-3,1.2-6.3,1.7-9.9,1.6c-2.5,0-4.7-0.3-6.5-0.9c-1.8-0.6-3.3-1.4-4.5-2.3c-1.2-0.9-2-2-2.5-3.1c-0.5-1.2-0.7-2.3-0.6-3.3
		c0.1-1.3,0.4-2.6,0.9-3.9c0.5-1.3,1.4-2.5,2.6-3.5c1.2-1,2.8-1.9,4.8-2.6c2-0.7,4.4-1.2,7.4-1.3c3-0.1,5.7,0.1,8,0.8
		c2.3,0.7,4.5,1.6,6.4,2.9c1.5-2.4,3-5.2,4.4-8.2c1.4-3,2.8-6.2,4.2-9.6c1.4-3.3,2.8-6.8,4.2-10.4c1.4-3.6,2.8-7.2,4.3-10.8
		c-4.6,0.8-8.3,1-11,0.5c-4.5-0.6-7.8-1.9-9.8-4.1c-2-2.2-3.1-5.4-3.3-9.8c2.4,1.6,5.2,2.7,8.6,3.2c3.3,0.6,7.3,0.8,11.9,0.6
		c2.5,0,5.1-0.2,7.9-0.6c2.2-4.8,4.5-9.4,6.9-13.7c2.4-4.3,5.1-8.1,8.1-11.3c3-3.2,6.2-5.7,9.7-7.5c3.5-1.8,7.4-2.5,11.7-2.3
		c2.4,0.5,4.4,1.4,6,2.7c1.5,1.3,2.2,3.3,2.1,5.9C96.1,13.4,95,17,93,20.4c-2,3.3-4.6,6.4-7.7,9.1c-3.1,2.7-6.7,5.1-10.6,7.1
		c-3.9,2.1-7.9,3.8-11.9,5.2c-1.7,4.3-3.4,8.7-5.1,13.2c-1.8,4.5-3.6,8.9-5.6,13.2c-2,4.3-4.1,8.4-6.4,12.2
		c-2.3,3.9-4.7,7.3-7.4,10.3c1.9,1.7,3.9,3.3,6,4.9c2.1,1.6,4.4,2.9,7,3.9c2.6,1,5.5,1.6,8.8,1.9C63.3,101.6,67.1,101.2,71.5,100.2z
		 M15.2,96.3c2.1,0,4-0.5,5.9-1.6c1.8-1,3.6-2.5,5.2-4.3c-1.8-1.2-3.8-2-6-2.6c-1.7-0.4-3.5-0.7-5.2-0.8c-1.7-0.1-3.3,0.1-4.8,0.4
		c-1.4,0.3-2.6,0.8-3.5,1.5c-0.9,0.6-1.4,1.5-1.5,2.6c-0.1,1.2,0.8,2.3,2.5,3.3C9.7,95.8,12.1,96.3,15.2,96.3z M87.5,7.5
		c-2.2,0-4.2,0.6-6.1,1.8c-1.9,1.2-3.7,2.9-5.3,5.1c-1.7,2.2-3.3,4.7-4.8,7.7c-1.5,3-3,6.2-4.5,9.7c3-1.1,5.9-2.4,8.7-3.8
		c2.8-1.5,5.3-3.1,7.5-4.9c2.2-1.8,4-3.7,5.5-5.8c1.4-2.1,2.3-4.3,2.7-6.7c0.1-0.8-0.2-1.5-0.9-2.2C89.5,7.8,88.6,7.5,87.5,7.5z"/>
	<path class="st1" d="M101.8,44.5c-0.2,2.4-1.3,4.6-3.1,6.5c1.4,0.4,1.9,0.8,1.7,1.4c-1.7,4.5-3.4,8.7-5.2,12.8
		c-1.8,4.1-3.5,8.2-5.1,12.4c-0.9,2.3-1.3,3.8-1.2,4.4c0,0.6,0.4,0.7,1.1,0.2c0.7-0.5,1.7-1.6,2.9-3.1c1.3-1.5,2.7-3.4,4.3-5.6
		c1.6-2.2,3.3-4.5,5.2-7.1c1.8-2.6,3.7-5.1,5.6-7.6c0.1,0.1,0.2,0.5,0.3,0.9c0.1,0.5,0.1,1,0.1,1.7c0,0.7-0.2,1.5-0.5,2.4
		c-0.3,0.9-0.8,1.9-1.6,2.9c-2.2,3-4.2,5.5-5.9,7.7c-1.7,2.2-3.3,4.2-4.8,6c-1.5,1.8-3,3.5-4.5,5c-1.5,1.5-3.2,3.1-5.1,4.7
		c-1,0.9-2.1,1.4-3.1,1.7c-1.1,0.3-2,0.3-2.9,0c-0.8-0.3-1.5-0.7-2-1.4c-0.5-0.7-0.7-1.5-0.6-2.5c0.1-0.8,0.2-1.7,0.4-2.8
		c0.2-1,0.5-2.2,0.9-3.4c-1.2,1.3-2.4,2.6-3.6,3.8c-1.3,1.2-2.5,2.3-3.7,3.2c-1.2,0.9-2.4,1.7-3.6,2.3c-1.2,0.6-2.2,0.9-3,0.9
		c-1.7,0-3-0.5-3.9-1.6c-0.9-1-1.3-2.4-1.2-4.2c0.1-2.7,0.6-5.8,1.6-9.2c1-3.4,2.3-6.9,3.9-10.5c1.7-3.6,3.6-7,5.8-10.4
		c2.2-3.4,4.6-6.4,7.2-9c2.6-2.6,5.3-4.7,8.1-6.3c2.8-1.6,5.6-2.3,8.4-2.3c1.9,0.1,3.7,0.6,5.1,1.6C101.3,41,102,42.5,101.8,44.5z
		 M86.4,53.1c2.2-0.6,4-1.5,5.5-2.9c1.5-1.3,2.5-2.9,3.2-4.7c0.3-0.8,0.3-1.6-0.1-2.4c-0.4-0.8-1.3-1-2.7-0.4
		c-1.3,0.5-2.7,1.7-4.2,3.5c-1.5,1.8-3,4-4.5,6.5c-1.5,2.5-3.1,5.2-4.5,8.2c-1.5,2.9-2.8,5.8-3.9,8.5c-1.2,2.8-2.1,5.3-2.9,7.6
		c-0.8,2.3-1.2,4.1-1.3,5.4c-0.1,1,0.1,1.4,0.9,1.2c0.7-0.2,1.6-0.8,2.6-1.6c1-0.9,2.2-2,3.4-3.3c1.2-1.3,2.3-2.6,3.2-3.8
		c1.2-3.4,2.6-6.8,4.2-10.3c1.5-3.5,3-6.7,4.3-9.6C87.8,54.8,86.8,54.2,86.4,53.1z"/>
	<path class="st1" d="M116.5,85.1c0.5-2,1.1-4.1,1.8-6.2c0.7-2.1,1.4-4.2,2.2-6.3c-1.5,1.9-2.9,3.7-4.2,5.3s-2.5,3.1-3.7,4.5
		c-1.2,1.4-2.4,2.7-3.7,3.9c-1.3,1.2-2.7,2.5-4.2,3.8c-1,0.9-2.1,1.4-3.2,1.6c-1.2,0.2-2.2,0-3.1-0.5c-0.9-0.5-1.6-1.3-2-2.3
		c-0.4-1-0.4-2.3,0-3.8c0.9-3.4,2-6.9,3.3-10.5c1.3-3.6,2.8-7.2,4.3-10.8c1.5-3.6,3.2-7.2,5-10.7c1.8-3.6,3.5-7,5.2-10.4
		c0.7-1.4,1.6-2.3,2.8-2.8c1.1-0.5,2.2-0.7,3.2-0.7c1,0,1.9,0.3,2.6,0.8c0.7,0.5,0.9,1,0.7,1.5l-15.1,36.2c-0.9,2.2-1.3,3.7-1.2,4.4
		c0,0.7,0.4,0.8,1.1,0.2c0.7-0.5,1.7-1.5,2.9-3c1.3-1.5,2.7-3.3,4.3-5.3c1.6-2.1,3.3-4.4,5.1-6.9c1.8-2.5,3.7-5,5.6-7.5
		c1.3-2.9,2.6-5.7,4-8.5c1.4-2.8,2.8-5.5,4.2-8.3c0.7-1.4,1.7-2.3,2.8-2.8c1.2-0.5,2.2-0.7,3.2-0.7c1,0,1.9,0.3,2.5,0.8
		c0.7,0.5,0.9,1,0.7,1.5l-15.1,36.2c-0.9,2.3-1.3,3.8-1.2,4.4c0,0.6,0.4,0.7,1.1,0.1c0.7-0.6,1.7-1.6,3.1-3.2
		c1.3-1.5,2.8-3.4,4.4-5.6s3.4-4.5,5.2-7.1c1.9-2.6,3.7-5.1,5.6-7.6c0,0.1,0.1,0.3,0.2,0.8c0.1,0.5,0.2,1.1,0.2,1.8
		c0,0.7-0.1,1.5-0.4,2.5c-0.3,0.9-0.9,1.9-1.7,3c-2.2,3-4.2,5.5-5.9,7.7c-1.7,2.2-3.3,4.2-4.8,6c-1.5,1.8-3,3.5-4.5,5
		c-1.5,1.5-3.2,3.1-5.1,4.7c-1,0.9-2.1,1.4-3.2,1.6c-1.2,0.2-2.2,0-3.1-0.5c-0.9-0.5-1.6-1.3-2-2.3
		C116.1,87.9,116.1,86.6,116.5,85.1z"/>
	<path class="st1" d="M154.2,61.2l9.1-13.4c0.2-0.3,0.7-0.9,1.4-1.9c0.7-1,1.6-2,2.6-3.1c1-1.1,2.1-2,3.3-2.9
		c1.2-0.8,2.3-1.2,3.3-1.1c1.4,0.1,2.3,0.6,2.7,1.5c0.4,0.8,0.5,1.7,0.4,2.8c-0.1,1.2-0.5,2.9-1.3,5.1c-0.8,2.2-1.7,4.4-2.8,6.9
		c-1,2.4-2,4.8-3.1,7.2c-1,2.4-1.8,4.4-2.3,6.1c-1.3,3.4-1.7,5.4-1.2,6c0.5,0.6,1.5,0.3,3-0.9c1.5-1.3,3.5-3.2,5.8-5.9
		c2.3-2.7,4.6-5.7,7-8.9c0,0.1,0.1,0.3,0.2,0.8c0.1,0.5,0.2,1.1,0.2,1.8c0,0.7-0.2,1.5-0.5,2.5c-0.3,0.9-0.8,1.9-1.6,3
		c-3.2,4.2-6.3,7.6-9.4,10.3c-3.1,2.7-6.3,4-9.7,4c-1.7,0-3-0.6-4-1.7c-1-1.1-1.4-3-1-5.6c0.1-0.7,0.4-1.7,0.9-3.1
		c0.5-1.3,1.1-2.8,1.7-4.3c0.6-1.5,1.3-3.1,1.9-4.6c0.6-1.5,1.2-2.9,1.7-4.2c0.8-1.8,1.1-2.8,0.8-2.9c-0.3-0.1-0.7,0.2-1.4,0.9
		c-0.7,0.7-1.4,1.6-2.3,2.8c-0.8,1.1-1.4,2-1.7,2.5c-0.6,1-1.3,2.1-2.1,3.4c-0.8,1.3-1.7,2.6-2.5,3.9c-0.9,1.3-1.7,2.7-2.6,4
		c-0.9,1.3-1.7,2.6-2.4,3.7l-1.5,4c-1.1,2.7-2,4.8-2.9,6.4c-0.8,1.6-1.6,2.8-2.4,3.6c-0.8,0.8-1.6,1.3-2.3,1.5s-1.6,0.3-2.5,0.3
		c-1.2-0.1-2.1-0.7-2.5-1.8c-0.4-1.1-0.3-2.7,0.4-4.7c1-2.9,2.2-6.1,3.6-9.7c1.4-3.6,2.8-7.2,4.4-11c1.6-3.8,3.3-7.6,5-11.4
		c1.8-3.9,3.5-7.5,5.2-10.9c0.7-1.4,1.6-2.4,2.8-2.9c1.1-0.5,2.2-0.7,3.2-0.7c1,0,1.9,0.3,2.6,0.8c0.7,0.5,0.9,1,0.7,1.5L154.2,61.2
		z"/>
	<path class="st1" d="M189.4,90.6c-1,0.6-2.4,1.2-4.1,1.5c-1.7,0.4-3.3,0.3-5-0.1c-1.6-0.4-3-1.4-4.3-3c-1.2-1.5-1.9-3.9-2.1-7.1
		c-0.1-2.8,0.3-5.9,1.2-9.3c0.9-3.4,2.2-6.8,3.8-10.2c1.6-3.4,3.6-6.6,5.8-9.7c2.3-3.1,4.7-5.8,7.3-8c2.6-2.2,5.3-3.9,8.1-5
		c2.8-1.1,5.6-1.4,8.3-0.8c1.3,0.3,2.3,0.8,3,1.5c0.7,0.7,1.2,1.4,1.6,2.3c0.3,0.8,0.5,1.7,0.5,2.5c0,0.8,0,1.5-0.1,2.1
		c-0.4,3.2-1.6,6.3-3.7,9.3c-2.1,3.1-4.6,5.7-7.4,7.9c-2.8,2.2-5.8,3.9-8.7,5c-3,1.1-5.5,1.2-7.6,0.3c-1.5,4.1-2.3,7.6-2.5,10.4
		c-0.1,2.5,0.4,4.2,1.4,4.9c1,0.8,2.3,0.8,4,0.3c1.7-0.6,3.6-1.7,5.8-3.5c2.2-1.7,4.4-3.8,6.8-6.2c2.1-2.2,4.2-4.9,6.5-8
		c2.2-3.1,4.5-6.2,6.8-9.2c0,0.1,0.1,0.3,0.2,0.8c0.1,0.5,0.2,1.1,0.2,1.8c0,0.7-0.1,1.5-0.4,2.5c-0.3,0.9-0.9,1.9-1.7,3
		c-2.2,3-4.3,5.6-6.3,7.9c-2,2.3-3.9,4.5-5.8,6.4c-1.9,1.9-3.8,3.7-5.7,5.2C193.5,87.9,191.5,89.3,189.4,90.6z M204.2,42.8
		c-1.3,0.5-2.7,1.5-4.2,3.1c-1.5,1.5-3,3.4-4.4,5.6c-1.5,2.2-2.9,4.6-4.3,7.1c-1.4,2.6-2.6,5.1-3.7,7.7c1.9-0.7,3.8-1.9,5.9-3.4
		c2.1-1.5,4-3.3,5.8-5.1c1.8-1.9,3.3-3.8,4.6-5.8c1.3-2,2.1-3.9,2.4-5.6c0.1-0.4,0.1-0.9,0.2-1.4c0.1-0.5,0.1-1-0.1-1.4
		c-0.1-0.4-0.3-0.7-0.7-0.9C205.5,42.4,204.9,42.5,204.2,42.8z"/>
	<path class="st1" d="M222.4,61.9c3.2-4.4,6-8.1,8.4-11c2.4-3,4.4-5.3,6.1-7.1c1.7-1.8,3.1-3,4.2-3.7c1.1-0.7,2.1-1.1,2.9-1.1
		c2.4,0,3.6,1.7,3.3,5.1c-0.1,1.4-0.4,3-0.9,4.8c-0.5,1.8-1.3,4-2.4,6.6c-1,2.6-2.3,5.7-3.9,9.3c-1.5,3.6-3.4,7.9-5.5,12.9
		c-0.9,2.3-1.3,3.8-1.2,4.4c0,0.6,0.4,0.7,1.1,0.2c0.7-0.5,1.7-1.6,3.1-3.1c1.3-1.5,2.8-3.4,4.4-5.6c1.6-2.2,3.4-4.5,5.2-7.1
		c1.9-2.6,3.7-5.1,5.6-7.6c0.1,0.1,0.2,0.5,0.3,0.9c0.1,0.5,0.1,1,0.1,1.7c0,0.7-0.2,1.5-0.5,2.4c-0.3,0.9-0.8,1.9-1.6,2.9
		c-2.2,3-4.2,5.5-5.9,7.7c-1.7,2.2-3.3,4.2-4.8,6c-1.5,1.8-3,3.5-4.5,5c-1.5,1.5-3.2,3.1-5,4.7c-1.1,0.9-2.2,1.4-3.3,1.6
		c-1.2,0.2-2.2,0-3-0.5c-0.9-0.5-1.5-1.3-1.9-2.3c-0.4-1-0.5-2.3-0.1-3.8c1-3.8,2.4-8,4.1-12.5c1.7-4.5,3.7-9.2,5.9-14.2
		c0.6-1.4,0.8-2.3,0.4-2.7c-0.4-0.4-1.1,0.1-2.3,1.4c-0.8,0.9-1.7,2.1-2.8,3.3c-1.1,1.3-2.2,2.7-3.3,4.1c-1.2,1.4-2.3,2.9-3.5,4.4
		c-1.2,1.5-2.2,2.9-3.2,4.2l-2.7,6.9c-1.1,2.7-2,4.8-2.9,6.4c-0.8,1.6-1.6,2.8-2.4,3.6c-0.8,0.8-1.6,1.3-2.3,1.5s-1.6,0.3-2.5,0.3
		c-1.2-0.1-2.1-0.7-2.5-1.8c-0.4-1.1-0.3-2.7,0.4-4.7c1-2.9,2.2-6.1,3.6-9.7c1.4-3.6,2.8-7.2,4.4-11c1.6-3.8,3.3-7.6,5-11.4
		c1.8-3.9,3.5-7.5,5.2-10.9c0.7-1.4,1.6-2.4,2.8-2.9c1.1-0.5,2.2-0.7,3.2-0.7c1,0,1.9,0.3,2.6,0.8c0.7,0.5,0.9,1,0.7,1.5L222.4,61.9
		z"/>
</g>
<text transform="matrix(1 0 0 1 -2.288818e-04 268.3989)" class="st1 st2 st3 st4">     </text>
<text transform="matrix(1 0 0 1 179.9998 268.3989)" class="st1 st2 st5"> </text>
<g class="st0">
	<path class="st1" d="M256.3,178.5c2.7-0.3,4.5,0,5.5,0.9c1,0.9,1.4,1.8,1.4,2.7c0.1,1,0.1,2.1-0.2,3.1c-0.3,1.1-0.6,2.1-1.1,3
		c-1.4,2.9-3,6-4.8,9.5c-1.8,3.4-3.6,7-5.6,10.8c-2,3.8-4,7.7-6.1,11.7c-2.1,4-4.2,8.1-6.3,12.1c3.7-0.6,7.4-1.1,11.2-1.5
		c3.8-0.3,7.9-0.6,12.3-0.7c1.9-4.4,4-8.9,6.1-13.5c2.1-4.6,4.2-9.1,6.3-13.6c2.1-4.4,4-8.6,5.9-12.6c1.9-4,3.6-7.5,5.1-10.6
		c1.8,0.1,3.2,0.6,4.3,1.4c1,0.8,1.8,1.7,2.2,2.9c0.4,1.1,0.5,2.3,0.4,3.6c-0.1,1.3-0.4,2.4-0.8,3.5c-1.5,4-3.2,8.5-5.2,13.4
		c-1.9,4.9-4,10-6.2,15.3s-4.3,10.6-6.5,15.9c-2.2,5.3-4.3,10.4-6.3,15.2c-2,4.8-3.9,9.2-5.5,13.2s-3,7.3-4,9.9
		c-1.9-0.4-3.7-1-5.3-1.8c-1.6-0.8-2.8-1.8-3.7-3.1c-0.9-1.3-1.3-2.9-1.2-4.8c0-1.9,0.7-4.2,2-7c1-2.1,2.3-4.8,3.8-8.2
		c1.5-3.3,3.2-7.1,5.2-11.4c-4.5,0.6-8.9,1.5-13.2,2.6c-4.3,1.1-8.6,2.3-12.9,3.7c-3.5,6.8-6.8,12.9-9.7,18.5c-3,5.5-5.3,9.9-7,13.2
		c-1.9-0.4-3.6-1-5.1-1.8c-1.4-0.8-2.5-1.8-3.2-3.1c-0.7-1.3-0.9-2.9-0.6-4.8c0.3-1.9,1.3-4.2,2.9-7c0.6-1.1,1.4-2.4,2.3-3.9
		c0.9-1.5,1.9-3.3,2.9-5.1c-3.5,1.2-6.9,2.4-10.2,3.6c-3.3,1.2-6.6,2.2-9.9,3.2c0.7-2.2,1.5-4.1,2.4-5.9c0.9-1.8,2-3.4,3.3-4.9
		c1.3-1.5,3-2.9,5-4c2-1.2,4.4-2.2,7.4-3.2c1.7-0.6,3.4-1.1,5.1-1.6c1.7-0.5,3.3-0.9,4.9-1.3c2.4-4.2,4.9-8.7,7.5-13.4
		c2.6-4.7,5.2-9.3,7.8-13.9c2.6-4.6,5.1-9.1,7.7-13.4c2.5-4.3,4.9-8.2,7-11.8c-4.5,1.1-8.5,2.6-11.9,4.7c-3.4,2.1-6.4,4.4-8.9,7
		c-2.5,2.6-4.5,5.5-6.1,8.5c-1.6,3-2.8,6-3.6,8.9c-0.8,2.9-1.3,5.7-1.5,8.3c-0.2,2.6-0.1,4.9,0.4,6.8c-3.4-0.3-6.1-1.2-8.2-2.6
		c-2.1-1.4-3.5-3.3-4.2-5.5c-0.8-2.2-0.9-4.6-0.4-7.3c0.5-2.7,1.6-5.4,3.2-8.2c2-3.4,4.6-6.5,7.6-9.4c3.1-2.9,6.5-5.4,10.3-7.6
		c3.8-2.2,7.9-4,12.4-5.5C246.7,180.1,251.4,179.1,256.3,178.5z"/>
	<path class="st1" d="M312.9,221.1c-0.2,2.4-1.3,4.6-3.1,6.5c1.4,0.4,1.9,0.8,1.7,1.4c-1.7,4.5-3.4,8.7-5.2,12.8
		c-1.8,4.1-3.5,8.2-5.1,12.4c-0.9,2.3-1.3,3.8-1.2,4.4c0,0.6,0.4,0.7,1.1,0.2c0.7-0.5,1.7-1.6,2.9-3.1c1.3-1.5,2.7-3.4,4.3-5.6
		c1.6-2.2,3.3-4.5,5.2-7.1c1.8-2.6,3.7-5.1,5.6-7.6c0.1,0.1,0.2,0.5,0.3,0.9c0.1,0.5,0.1,1,0.1,1.7c0,0.7-0.2,1.5-0.5,2.4
		c-0.3,0.9-0.8,1.9-1.6,2.9c-2.2,3-4.2,5.5-5.9,7.7c-1.7,2.2-3.3,4.2-4.8,6c-1.5,1.8-3,3.5-4.5,5c-1.5,1.5-3.2,3.1-5.1,4.7
		c-1,0.9-2.1,1.4-3.1,1.7c-1.1,0.3-2,0.3-2.9,0c-0.8-0.3-1.5-0.7-2-1.4c-0.5-0.7-0.7-1.5-0.6-2.5c0.1-0.8,0.2-1.7,0.4-2.8
		c0.2-1,0.5-2.2,0.9-3.4c-1.2,1.3-2.4,2.6-3.6,3.8c-1.3,1.2-2.5,2.3-3.7,3.2c-1.2,0.9-2.4,1.7-3.6,2.3c-1.2,0.6-2.2,0.9-3,0.9
		c-1.7,0-3-0.5-3.9-1.6c-0.9-1-1.3-2.4-1.2-4.2c0.1-2.7,0.6-5.8,1.6-9.2c1-3.4,2.3-6.9,3.9-10.5c1.7-3.6,3.6-7,5.8-10.4
		c2.2-3.4,4.6-6.4,7.2-9c2.6-2.6,5.3-4.7,8.1-6.3c2.8-1.6,5.6-2.3,8.4-2.3c1.9,0.1,3.7,0.6,5.1,1.6
		C312.3,217.6,313,219.1,312.9,221.1z M297.4,229.7c2.2-0.6,4-1.5,5.5-2.9c1.5-1.3,2.5-2.9,3.2-4.7c0.3-0.8,0.3-1.6-0.1-2.4
		c-0.4-0.8-1.3-1-2.7-0.4c-1.3,0.5-2.7,1.7-4.2,3.5c-1.5,1.8-3,4-4.5,6.5c-1.5,2.5-3.1,5.2-4.5,8.2c-1.5,2.9-2.8,5.8-3.9,8.5
		c-1.2,2.8-2.1,5.3-2.9,7.6c-0.8,2.3-1.2,4.1-1.3,5.4c-0.1,1,0.1,1.4,0.9,1.2c0.7-0.2,1.6-0.8,2.6-1.6c1-0.9,2.2-2,3.4-3.3
		c1.2-1.3,2.3-2.6,3.2-3.8c1.2-3.4,2.6-6.8,4.2-10.3c1.5-3.5,3-6.7,4.3-9.6C298.8,231.4,297.8,230.8,297.4,229.7z"/>
	<path class="st1" d="M320,254.1c-0.9,2.3-1.3,3.8-1.2,4.4c0,0.6,0.4,0.7,1.1,0.2c0.7-0.5,1.7-1.6,3.1-3.1c1.3-1.5,2.8-3.4,4.4-5.6
		c1.6-2.2,3.4-4.5,5.2-7.1c1.9-2.6,3.7-5.1,5.6-7.6c0.1,0.1,0.2,0.5,0.3,0.9c0.1,0.5,0.1,1,0.1,1.7c0,0.7-0.2,1.5-0.5,2.4
		c-0.3,0.9-0.8,1.9-1.6,2.9c-2.2,3-4.2,5.5-5.9,7.7c-1.7,2.2-3.3,4.2-4.8,6c-1.5,1.8-3,3.5-4.5,5c-1.5,1.5-3.2,3.1-5,4.7
		c-1,0.9-2.1,1.4-3.2,1.6c-1.2,0.2-2.2,0-3.1-0.5c-0.9-0.5-1.6-1.3-2-2.3c-0.4-1-0.5-2.3-0.1-3.8c0.8-2.8,1.7-5.7,2.8-8.7
		c1.1-3,2.3-6.2,3.8-9.6c1.8-4.4,3.7-8.9,5.6-13.5c1.9-4.6,3.7-9,5.5-13.2c1.8-4.2,3.4-8,5-11.6c1.6-3.6,3-6.5,4.2-8.9
		c0.7-1.4,1.7-2.3,2.8-2.8c1.2-0.5,2.2-0.7,3.2-0.7c1,0,1.9,0.3,2.5,0.8c0.7,0.5,0.9,1,0.7,1.5L320,254.1z"/>
	<path class="st1" d="M339.4,254.1c-0.9,2.3-1.3,3.8-1.2,4.4c0,0.6,0.4,0.7,1.1,0.2c0.7-0.5,1.7-1.6,3.1-3.1
		c1.3-1.5,2.8-3.4,4.4-5.6c1.6-2.2,3.4-4.5,5.2-7.1c1.9-2.6,3.7-5.1,5.6-7.6c0.1,0.1,0.2,0.5,0.3,0.9c0.1,0.5,0.1,1,0.1,1.7
		c0,0.7-0.2,1.5-0.5,2.4c-0.3,0.9-0.8,1.9-1.6,2.9c-2.2,3-4.2,5.5-5.9,7.7c-1.7,2.2-3.3,4.2-4.8,6c-1.5,1.8-3,3.5-4.5,5
		c-1.5,1.5-3.2,3.1-5,4.7c-1,0.9-2.1,1.4-3.2,1.6c-1.2,0.2-2.2,0-3.1-0.5c-0.9-0.5-1.6-1.3-2-2.3c-0.4-1-0.5-2.3-0.1-3.8
		c0.8-2.8,1.7-5.7,2.8-8.7c1.1-3,2.3-6.2,3.8-9.6c1.8-4.4,3.7-8.9,5.6-13.5c1.9-4.6,3.7-9,5.5-13.2c1.8-4.2,3.4-8,5-11.6
		c1.6-3.6,3-6.5,4.2-8.9c0.7-1.4,1.7-2.3,2.8-2.8c1.2-0.5,2.2-0.7,3.2-0.7c1,0,1.9,0.3,2.5,0.8c0.7,0.5,0.9,1,0.7,1.5L339.4,254.1z"
		/>
	<path class="st1" d="M365,267.2c-1,0.6-2.4,1.2-4.1,1.5c-1.7,0.4-3.3,0.3-5-0.1c-1.6-0.4-3-1.4-4.3-3c-1.2-1.5-1.9-3.9-2.1-7.1
		c-0.1-2.8,0.3-5.9,1.2-9.3c0.9-3.4,2.2-6.8,3.8-10.2c1.6-3.4,3.6-6.6,5.8-9.7c2.3-3.1,4.7-5.8,7.3-8c2.6-2.2,5.3-3.9,8.1-5
		c2.8-1.1,5.6-1.4,8.3-0.8c1.3,0.3,2.3,0.8,3,1.5c0.7,0.7,1.2,1.4,1.6,2.3c0.3,0.8,0.5,1.7,0.5,2.5c0,0.8,0,1.5-0.1,2.1
		c-0.4,3.2-1.6,6.3-3.7,9.3c-2.1,3.1-4.6,5.7-7.4,7.9c-2.8,2.2-5.8,3.9-8.7,5c-3,1.1-5.5,1.2-7.6,0.3c-1.5,4.1-2.3,7.6-2.5,10.4
		c-0.1,2.5,0.4,4.2,1.4,4.9c1,0.8,2.3,0.8,4,0.3c1.7-0.6,3.6-1.7,5.8-3.5c2.2-1.7,4.4-3.8,6.8-6.2c2.1-2.2,4.2-4.9,6.5-8
		c2.2-3.1,4.5-6.2,6.8-9.2c0,0.1,0.1,0.3,0.2,0.8c0.1,0.5,0.2,1.1,0.2,1.8c0,0.7-0.1,1.5-0.4,2.5c-0.3,0.9-0.9,1.9-1.7,3
		c-2.2,3-4.3,5.6-6.3,7.9c-2,2.3-3.9,4.5-5.8,6.4c-1.9,1.9-3.8,3.7-5.7,5.2C369.1,264.5,367.1,265.9,365,267.2z M379.8,219.4
		c-1.3,0.5-2.7,1.5-4.2,3.1c-1.5,1.5-3,3.4-4.4,5.6c-1.5,2.2-2.9,4.6-4.3,7.1c-1.4,2.6-2.6,5.1-3.7,7.7c1.9-0.7,3.8-1.9,5.9-3.4
		c2.1-1.5,4-3.3,5.8-5.1c1.8-1.9,3.3-3.8,4.6-5.8c1.3-2,2.1-3.9,2.4-5.6c0.1-0.4,0.1-0.9,0.2-1.4c0.1-0.5,0.1-1-0.1-1.4
		c-0.1-0.4-0.3-0.7-0.7-0.9C381.1,219,380.5,219.1,379.8,219.4z"/>
	<path class="st1" d="M407.8,262c2.1-2.1,4.4-4.6,7-7.6c2.6-3,5.5-6.6,8.9-10.9c1-1.3,2-2.6,3-4s2-2.8,3-4.3c0,0.1,0.1,0.3,0.2,0.8
		c0.1,0.5,0.2,1.1,0.2,1.8c0,0.7-0.1,1.5-0.4,2.5c-0.3,0.9-0.8,1.9-1.7,3l-1.7,2.3c-4.4,5.8-8.4,10.6-11.9,14.4
		c-3.6,3.8-6.8,6.9-9.7,9.3l-7.2,17.1c-1.7,3.3-3.6,5.7-5.6,7.1c-2,1.4-3.9,2.1-5.6,2.2c-1.8,0-3.3-0.5-4.5-1.7
		c-1.2-1.2-2-2.6-2.2-4.4c-0.3-1.8,0.1-3.7,1.2-5.8c1-2.1,3-4.2,5.8-6.1l6.6-4.3c1.6-3.8,3.1-7.6,4.7-11.5c1.5-3.9,3.1-7.7,4.8-11.6
		c-1.4,1.8-2.6,3.5-3.8,5c-1.2,1.5-2.4,2.9-3.6,4.2c-1.2,1.3-2.4,2.5-3.6,3.7c-1.2,1.2-2.6,2.4-4,3.6c-1,0.9-2.1,1.4-3.2,1.6
		c-1.2,0.2-2.2,0-3.1-0.5c-0.9-0.5-1.6-1.3-2-2.3c-0.4-1-0.4-2.3,0-3.8c0.9-3.4,2-6.9,3.3-10.5c1.3-3.6,2.8-7.2,4.3-10.8
		c1.5-3.6,3.2-7.2,5-10.7c1.8-3.6,3.5-7,5.2-10.4c0.7-1.4,1.6-2.3,2.8-2.8c1.1-0.5,2.2-0.7,3.2-0.7c1,0,1.9,0.3,2.6,0.8
		c0.7,0.5,0.9,1,0.7,1.5l-15.1,36.2c-0.9,2.2-1.3,3.7-1.2,4.4c0,0.7,0.4,0.8,1.1,0.3c0.7-0.5,1.6-1.5,2.9-2.9
		c1.2-1.4,2.6-3.2,4.2-5.2c1.5-2.1,3.2-4.3,5-6.8c1.8-2.4,3.6-4.9,5.5-7.5c1.3-3,2.7-5.8,4.1-8.7c1.4-2.8,2.9-5.7,4.4-8.5
		c0.7-1.4,1.7-2.3,2.8-2.8c1.2-0.5,2.2-0.7,3.3-0.7c1,0,1.9,0.3,2.5,0.8c0.6,0.5,0.9,1,0.6,1.5L407.8,262z M390.7,279.3
		c-0.4,0.2-0.8,0.5-1.2,0.9c-2.3,1.7-3.8,3.4-4.6,4.9c-0.8,1.5-1.1,2.7-0.9,3.5c0.1,0.8,0.6,1.1,1.3,1c0.7-0.1,1.4-1,2.2-2.6
		L390.7,279.3z"/>
</g>
<g class="st0">
	<path d="M16.5,153.9v-25.6h7.1c2,0,3.8,0.5,5.4,1.4s2.9,2.3,3.8,3.9s1.4,3.6,1.4,5.7v3.3c0,2.1-0.4,4.1-1.3,5.8
		c-0.9,1.7-2.1,3-3.8,4s-3.4,1.4-5.4,1.5H16.5z M17.5,129.2v23.7h6.1c1.8,0,3.4-0.4,4.9-1.3s2.6-2.1,3.5-3.7
		c0.8-1.6,1.3-3.3,1.3-5.2v-3.3c0-1.9-0.4-3.6-1.2-5.2s-2-2.8-3.4-3.7s-3.1-1.3-4.8-1.4H17.5z"/>
	<path d="M39.3,128.9c0-0.3,0.1-0.5,0.3-0.7s0.4-0.3,0.7-0.3s0.5,0.1,0.7,0.3s0.3,0.4,0.3,0.7s-0.1,0.5-0.3,0.7s-0.4,0.3-0.7,0.3
		s-0.5-0.1-0.7-0.3S39.3,129.2,39.3,128.9z M40.8,153.9h-0.9v-19h0.9V153.9z"/>
	<path d="M46.1,144.1c0-3,0.6-5.4,1.9-7.1s3-2.6,5.3-2.6c1.4,0,2.7,0.3,3.8,1s2,1.6,2.7,2.9v-3.5h1v18.7c0,2.5-0.6,4.5-1.9,5.9
		s-3,2.1-5.3,2.1c-1.3,0-2.4-0.3-3.5-0.8c-1.1-0.6-2-1.3-2.7-2.4l0.7-0.6c0.7,0.9,1.5,1.7,2.4,2.1c0.9,0.5,1.9,0.7,3.1,0.7
		c2,0,3.5-0.6,4.6-1.8s1.7-2.9,1.7-5v-2.9c-0.7,1.1-1.5,1.9-2.7,2.5s-2.4,0.9-3.8,0.9c-2.2,0-3.9-0.9-5.2-2.6s-1.9-4.1-1.9-7.2
		V144.1z M47.1,144.5c0,2.7,0.5,4.9,1.6,6.4s2.6,2.3,4.5,2.3c1.6,0,3-0.4,4.1-1.1s1.9-1.8,2.4-3.1v-8.6c-1-3.3-3.2-4.9-6.5-4.9
		c-2,0-3.5,0.8-4.6,2.3S47.1,141.5,47.1,144.5z"/>
	<path d="M66.5,128.9c0-0.3,0.1-0.5,0.3-0.7s0.4-0.3,0.7-0.3s0.5,0.1,0.7,0.3s0.3,0.4,0.3,0.7s-0.1,0.5-0.3,0.7s-0.4,0.3-0.7,0.3
		s-0.5-0.1-0.7-0.3S66.5,129.2,66.5,128.9z M67.9,153.9H67v-19h0.9V153.9z"/>
	<path d="M76.3,129.7v5.1h4.3v0.9h-4.3v13.5c0,1.3,0.2,2.3,0.7,3s1.2,1,2.2,1c0.5,0,1.1-0.1,1.9-0.2l0.2,0.9c-0.4,0.1-1,0.2-2,0.2
		c-1.4,0-2.4-0.4-3-1.2s-0.9-2-0.9-3.6v-13.6h-3.5v-0.9h3.5v-5.1H76.3z"/>
	<path d="M97.8,153.9c-0.2-0.8-0.4-2-0.4-3.5c-0.8,1.2-1.8,2.2-3.1,2.8s-2.8,1-4.4,1c-1.8,0-3.2-0.5-4.2-1.4s-1.6-2.2-1.6-3.7
		c0-1.7,0.8-3.1,2.4-4.2s3.7-1.6,6.3-1.6h4.7v-2.8c0-1.6-0.5-2.8-1.5-3.7s-2.4-1.3-4.3-1.3c-1.7,0-3.2,0.4-4.3,1.3s-1.7,2-1.7,3.3
		l-0.9,0c0-1.5,0.7-2.9,2-3.9s3-1.6,5-1.6c2.1,0,3.7,0.5,4.9,1.5s1.8,2.5,1.9,4.3v9.1c0,2.1,0.2,3.5,0.5,4.3v0.2H97.8z M90,153.3
		c1.8,0,3.3-0.4,4.6-1.2s2.2-1.9,2.9-3.4v-4.5h-4.4c-2.7,0-4.8,0.5-6.2,1.6c-1.2,0.9-1.8,2-1.8,3.3c0,1.2,0.5,2.1,1.4,3
		S88.6,153.3,90,153.3z"/>
	<path d="M105.7,153.9h-0.9v-27h0.9V153.9z"/>
	<path d="M122.4,128.3l10.5,24.2l10.6-24.2h1.4v25.6H144v-24.2l-10.6,24.2h-0.8L122,129.8v24.1h-0.9v-25.6H122.4z"/>
	<path d="M163.7,153.9c-0.2-0.8-0.4-2-0.4-3.5c-0.8,1.2-1.8,2.2-3.1,2.8s-2.8,1-4.4,1c-1.8,0-3.2-0.5-4.2-1.4s-1.6-2.2-1.6-3.7
		c0-1.7,0.8-3.1,2.4-4.2s3.7-1.6,6.3-1.6h4.7v-2.8c0-1.6-0.5-2.8-1.5-3.7s-2.4-1.3-4.3-1.3c-1.7,0-3.2,0.4-4.3,1.3s-1.7,2-1.7,3.3
		l-0.9,0c0-1.5,0.7-2.9,2-3.9s3-1.6,5-1.6c2.1,0,3.7,0.5,4.9,1.5s1.8,2.5,1.9,4.3v9.1c0,2.1,0.2,3.5,0.5,4.3v0.2H163.7z
		 M155.9,153.3c1.8,0,3.3-0.4,4.6-1.2s2.2-1.9,2.9-3.4v-4.5H159c-2.7,0-4.8,0.5-6.2,1.6c-1.2,0.9-1.8,2-1.8,3.3c0,1.2,0.5,2.1,1.4,3
		S154.5,153.3,155.9,153.3z"/>
	<path d="M178.8,135.5l-1.2-0.1c-1.6,0-3,0.5-4.1,1.6s-1.8,2.5-2.1,4.4v12.5h-0.9v-19h0.9v4c0.5-1.3,1.3-2.4,2.3-3.1
		s2.3-1.2,3.9-1.2c0.6,0,1,0.1,1.3,0.2L178.8,135.5z"/>
	<path d="M186.2,143.6L186.2,143.6l-2.8,2.4v7.9h-0.9v-27h0.9v18.1l2.2-2.1l8.6-8h1.4l-8.7,8.1l9.3,10.9H195L186.2,143.6z"/>
	<path d="M206,154.2c-1.5,0-2.9-0.4-4.2-1.2s-2.3-2-3-3.4s-1.1-3-1.1-4.8V144c0-1.8,0.4-3.4,1.1-4.8s1.7-2.6,2.9-3.4s2.6-1.2,4-1.2
		c2.1,0,3.9,0.8,5.2,2.3s2,3.5,2,6v1h-14.3v1c0,1.5,0.3,3,1,4.3c0.7,1.3,1.5,2.3,2.7,3.1c1.1,0.7,2.4,1.1,3.7,1.1
		c1.3,0,2.4-0.2,3.3-0.6c0.9-0.4,1.7-1.1,2.4-2l0.7,0.5C210.9,153.2,208.8,154.2,206,154.2z M205.7,135.4c-1.9,0-3.4,0.7-4.7,2.1
		s-2,3.1-2.3,5.3h13.3v-0.2c0-1.3-0.3-2.5-0.8-3.6s-1.3-2-2.2-2.6S206.8,135.4,205.7,135.4z"/>
	<path d="M219.4,129.7v5.1h4.3v0.9h-4.3v13.5c0,1.3,0.2,2.3,0.7,3s1.2,1,2.2,1c0.5,0,1.1-0.1,1.9-0.2l0.2,0.9c-0.4,0.1-1,0.2-2,0.2
		c-1.4,0-2.4-0.4-3-1.2s-0.9-2-0.9-3.6v-13.6H215v-0.9h3.5v-5.1H219.4z"/>
	<path d="M228.4,128.9c0-0.3,0.1-0.5,0.3-0.7s0.4-0.3,0.7-0.3s0.5,0.1,0.7,0.3s0.3,0.4,0.3,0.7s-0.1,0.5-0.3,0.7s-0.4,0.3-0.7,0.3
		s-0.5-0.1-0.7-0.3S228.4,129.2,228.4,128.9z M229.9,153.9h-0.9v-19h0.9V153.9z"/>
	<path d="M237.1,139.3c0.6-1.5,1.5-2.6,2.7-3.5s2.5-1.3,4-1.3c2,0,3.6,0.6,4.5,1.7s1.5,2.9,1.5,5.2v12.4h-0.9v-12.4
		c0-2-0.4-3.5-1.2-4.5s-2.1-1.5-3.9-1.5c-1.6,0-3.1,0.6-4.3,1.7c-1.2,1.2-2,2.7-2.4,4.5v12.2h-0.9v-19h0.9V139.3z"/>
	<path d="M254.9,144.1c0-3,0.6-5.4,1.9-7.1s3-2.6,5.3-2.6c1.4,0,2.7,0.3,3.8,1s2,1.6,2.7,2.9v-3.5h1v18.7c0,2.5-0.6,4.5-1.9,5.9
		s-3,2.1-5.3,2.1c-1.3,0-2.4-0.3-3.5-0.8c-1.1-0.6-2-1.3-2.7-2.4l0.7-0.6c0.7,0.9,1.5,1.7,2.4,2.1c0.9,0.5,1.9,0.7,3.1,0.7
		c2,0,3.5-0.6,4.6-1.8s1.7-2.9,1.7-5v-2.9c-0.7,1.1-1.5,1.9-2.7,2.5s-2.4,0.9-3.8,0.9c-2.2,0-3.9-0.9-5.2-2.6s-1.9-4.1-1.9-7.2
		V144.1z M255.9,144.5c0,2.7,0.5,4.9,1.6,6.4s2.6,2.3,4.5,2.3c1.6,0,3-0.4,4.1-1.1s1.9-1.8,2.4-3.1v-8.6c-1-3.3-3.2-4.9-6.5-4.9
		c-2,0-3.5,0.8-4.6,2.3S255.9,141.5,255.9,144.5z"/>
	<path d="M288.6,139.8c-1-1.3-1.8-2.4-2.2-3.4s-0.7-2-0.7-3c0-1.7,0.5-3,1.5-4s2.3-1.5,3.9-1.5c1.5,0,2.6,0.4,3.5,1.3s1.3,2,1.3,3.3
		c0,1.6-1.1,3.3-3.3,5.1l-2.7,2.2l8.3,9.5c1.3-1.9,2-4.1,2-6.6h1c0,2.8-0.8,5.2-2.3,7.3l3.3,3.8H301l-2.8-3.1
		c-2.3,2.3-4.8,3.4-7.4,3.4c-2.4,0-4.2-0.6-5.6-1.8s-2-2.8-2-4.8c0-1.1,0.3-2.3,1-3.4s1.8-2.4,3.5-3.8L288.6,139.8z M290.8,153.3
		c1.3,0,2.5-0.3,3.7-0.8s2.2-1.4,3.1-2.4l-8.5-9.6l-0.9,0.7c-1.4,1.2-2.4,2.3-3.1,3.4s-1,2.1-1,3.2c0,1.7,0.6,3,1.8,4
		S288.8,153.3,290.8,153.3z M286.6,133.3c0,1.9,0.9,3.8,2.6,5.9l3.1-2.4c1.7-1.4,2.5-2.8,2.5-4.2c0-1.1-0.4-2-1.1-2.7s-1.6-1-2.8-1
		c-1.3,0-2.4,0.4-3.2,1.2S286.6,132,286.6,133.3z"/>
	<path d="M315.2,153.9v-25.6h7.1c2,0,3.8,0.5,5.4,1.4s2.9,2.3,3.8,3.9s1.4,3.6,1.4,5.7v3.3c0,2.1-0.4,4.1-1.3,5.8
		c-0.9,1.7-2.1,3-3.8,4s-3.4,1.4-5.4,1.5H315.2z M316.2,129.2v23.7h6.1c1.8,0,3.4-0.4,4.9-1.3s2.6-2.1,3.5-3.7
		c0.8-1.6,1.3-3.3,1.3-5.2v-3.3c0-1.9-0.4-3.6-1.2-5.2s-2-2.8-3.4-3.7s-3.1-1.3-4.8-1.4H316.2z"/>
	<path d="M345.1,154.2c-1.5,0-2.9-0.4-4.2-1.2s-2.3-2-3-3.4s-1.1-3-1.1-4.8V144c0-1.8,0.4-3.4,1.1-4.8s1.7-2.6,2.9-3.4
		s2.6-1.2,4-1.2c2.1,0,3.9,0.8,5.2,2.3s2,3.5,2,6v1h-14.3v1c0,1.5,0.3,3,1,4.3c0.7,1.3,1.5,2.3,2.7,3.1c1.1,0.7,2.4,1.1,3.7,1.1
		c1.3,0,2.4-0.2,3.3-0.6c0.9-0.4,1.7-1.1,2.4-2l0.7,0.5C350,153.2,347.9,154.2,345.1,154.2z M344.8,135.4c-1.9,0-3.4,0.7-4.7,2.1
		s-2,3.1-2.3,5.3H351v-0.2c0-1.3-0.3-2.5-0.8-3.6s-1.3-2-2.2-2.6S345.9,135.4,344.8,135.4z"/>
	<path d="M368.1,149.2c0-2.3-2-3.9-5.9-4.7c-2.4-0.5-4-1.2-4.9-1.9s-1.4-1.9-1.4-3.3c0-1.4,0.6-2.5,1.8-3.4s2.7-1.4,4.6-1.4
		c2.1,0,3.7,0.5,4.9,1.5s1.9,2.3,1.9,4h-1c0-1.3-0.5-2.3-1.6-3.2s-2.5-1.3-4.2-1.3c-1.7,0-3,0.4-4,1.1s-1.5,1.6-1.5,2.7
		c0,0.9,0.2,1.5,0.5,2s1,0.9,1.8,1.3s2,0.8,3.6,1.1s2.8,0.8,3.7,1.3s1.6,1.1,2,1.7s0.6,1.5,0.6,2.5c0,1.5-0.6,2.7-1.8,3.6
		s-2.8,1.4-4.8,1.4c-2.1,0-3.9-0.5-5.2-1.5s-2-2.2-2-3.7h0.9c0.1,1.3,0.7,2.4,1.8,3.1s2.6,1.1,4.4,1.1c1.7,0,3.1-0.4,4.1-1.2
		S368.1,150.3,368.1,149.2z"/>
	<path d="M374.1,128.9c0-0.3,0.1-0.5,0.3-0.7s0.4-0.3,0.7-0.3s0.5,0.1,0.7,0.3s0.3,0.4,0.3,0.7s-0.1,0.5-0.3,0.7s-0.4,0.3-0.7,0.3
		s-0.5-0.1-0.7-0.3S374.1,129.2,374.1,128.9z M375.5,153.9h-0.9v-19h0.9V153.9z"/>
	<path d="M380.8,144.1c0-3,0.6-5.4,1.9-7.1s3-2.6,5.3-2.6c1.4,0,2.7,0.3,3.8,1s2,1.6,2.7,2.9v-3.5h1v18.7c0,2.5-0.6,4.5-1.9,5.9
		s-3,2.1-5.3,2.1c-1.3,0-2.4-0.3-3.5-0.8c-1.1-0.6-2-1.3-2.7-2.4l0.7-0.6c0.7,0.9,1.5,1.7,2.4,2.1c0.9,0.5,1.9,0.7,3.1,0.7
		c2,0,3.5-0.6,4.6-1.8s1.7-2.9,1.7-5v-2.9c-0.7,1.1-1.5,1.9-2.7,2.5s-2.4,0.9-3.8,0.9c-2.2,0-3.9-0.9-5.2-2.6s-1.9-4.1-1.9-7.2
		V144.1z M381.8,144.5c0,2.7,0.5,4.9,1.6,6.4s2.6,2.3,4.5,2.3c1.6,0,3-0.4,4.1-1.1s1.9-1.8,2.4-3.1v-8.6c-1-3.3-3.2-4.9-6.5-4.9
		c-2,0-3.5,0.8-4.6,2.3S381.8,141.5,381.8,144.5z"/>
	<path d="M402.4,139.3c0.6-1.5,1.5-2.6,2.7-3.5s2.5-1.3,4-1.3c2,0,3.6,0.6,4.5,1.7s1.5,2.9,1.5,5.2v12.4h-0.9v-12.4
		c0-2-0.4-3.5-1.2-4.5s-2.1-1.5-3.9-1.5c-1.6,0-3.1,0.6-4.3,1.7c-1.2,1.2-2,2.7-2.4,4.5v12.2h-0.9v-19h0.9V139.3z"/>
</g>
</svg>
