<?xml version="1.0" encoding="utf-8"?>
<!-- Generator: Adobe Illustrator 19.2.0, SVG Export Plug-In . SVG Version: 6.00 Build 0)  -->
<svg version="1.1" id="Layer_1" xmlns="http://www.w3.org/2000/svg" xmlns:xlink="http://www.w3.org/1999/xlink" x="0px" y="0px"
	 viewBox="0 0 140.4 33.1" style="enable-background:new 0 0 140.4 33.1;" xml:space="preserve">
<style type="text/css">
	.st0{enable-background:new    ;}
	.st1{fill:#FFFFFF;}
</style>
<g class="st0">
	<path class="st1" d="M19.9,27.8c0.1,0.6,0,1.1-0.2,1.5c-0.2,0.4-0.6,0.8-1,1.1c-0.4,0.3-0.9,0.5-1.4,0.6c-0.5,0.1-1.1,0.2-1.6,0.1
		c-0.7-0.1-1.4-0.3-2-0.7c-0.6-0.3-1.2-0.7-1.7-1.1c-0.5-0.4-1-0.9-1.5-1.4c-0.5-0.5-0.9-1-1.4-1.4c-0.7,0.6-1.5,1-2.4,1.3
		C5.9,28.2,5,28.4,4,28.4c-0.7,0-1.3-0.1-1.8-0.3c-0.5-0.2-0.9-0.4-1.3-0.6c-0.3-0.3-0.6-0.6-0.7-0.9C0.1,26.3,0,26,0.1,25.7
		c0-0.4,0.1-0.7,0.3-1.1c0.1-0.4,0.4-0.7,0.7-1c0.3-0.3,0.8-0.5,1.3-0.7c0.6-0.2,1.2-0.3,2.1-0.4c0.8,0,1.6,0,2.2,0.2
		c0.6,0.2,1.2,0.5,1.8,0.8c0.4-0.7,0.8-1.4,1.2-2.3c0.4-0.8,0.8-1.7,1.2-2.7c0.4-0.9,0.8-1.9,1.2-2.9c0.4-1,0.8-2,1.2-3
		c-1.3,0.2-2.3,0.3-3.1,0.2c-1.3-0.2-2.2-0.5-2.7-1.1C6.8,11.1,6.5,10.2,6.5,9c0.7,0.4,1.5,0.7,2.4,0.9c0.9,0.2,2,0.2,3.3,0.2
		c0.7,0,1.4-0.1,2.2-0.2c0.6-1.3,1.2-2.6,1.9-3.8C17,4.9,17.7,3.8,18.5,3c0.8-0.9,1.7-1.6,2.7-2.1c1-0.5,2.1-0.7,3.3-0.6
		c0.7,0.1,1.2,0.4,1.7,0.8c0.4,0.4,0.6,0.9,0.6,1.6c0,1.1-0.3,2.1-0.9,3c-0.6,0.9-1.3,1.8-2.1,2.5s-1.9,1.4-2.9,2
		c-1.1,0.6-2.2,1.1-3.3,1.5C17,12.8,16.5,14,16,15.3c-0.5,1.2-1,2.5-1.6,3.7c-0.6,1.2-1.1,2.3-1.8,3.4c-0.6,1.1-1.3,2-2.1,2.9
		c0.5,0.5,1.1,0.9,1.7,1.3c0.6,0.4,1.2,0.8,1.9,1.1c0.7,0.3,1.5,0.5,2.4,0.5C17.6,28.2,18.6,28.1,19.9,27.8z M4.2,26.8
		c0.6,0,1.1-0.1,1.6-0.4c0.5-0.3,1-0.7,1.5-1.2c-0.5-0.3-1.1-0.6-1.7-0.7c-0.5-0.1-1-0.2-1.4-0.2c-0.5,0-0.9,0-1.3,0.1
		c-0.4,0.1-0.7,0.2-1,0.4c-0.2,0.2-0.4,0.4-0.4,0.7c0,0.3,0.2,0.6,0.7,0.9C2.7,26.6,3.4,26.8,4.2,26.8z M24.3,2.1
		c-0.6,0-1.2,0.2-1.7,0.5c-0.5,0.3-1,0.8-1.5,1.4c-0.5,0.6-0.9,1.3-1.3,2.1c-0.4,0.8-0.8,1.7-1.2,2.7c0.8-0.3,1.6-0.7,2.4-1.1
		c0.8-0.4,1.5-0.9,2.1-1.3c0.6-0.5,1.1-1,1.5-1.6s0.6-1.2,0.8-1.9c0-0.2,0-0.4-0.3-0.6C24.9,2.2,24.6,2.1,24.3,2.1z"/>
	<path class="st1" d="M28.3,12.4c-0.1,0.7-0.4,1.3-0.9,1.8c0.4,0.1,0.5,0.2,0.5,0.4c-0.5,1.2-0.9,2.4-1.5,3.6
		c-0.5,1.1-1,2.3-1.4,3.4c-0.2,0.6-0.4,1-0.3,1.2c0,0.2,0.1,0.2,0.3,0c0.2-0.2,0.5-0.4,0.8-0.9s0.8-0.9,1.2-1.5
		c0.5-0.6,0.9-1.3,1.4-2c0.5-0.7,1-1.4,1.5-2.1c0,0,0,0.1,0.1,0.3c0,0.1,0,0.3,0,0.5c0,0.2-0.1,0.4-0.1,0.7s-0.2,0.5-0.5,0.8
		c-0.6,0.8-1.2,1.5-1.6,2.1c-0.5,0.6-0.9,1.2-1.3,1.7c-0.4,0.5-0.8,1-1.2,1.4c-0.4,0.4-0.9,0.9-1.4,1.3c-0.3,0.2-0.6,0.4-0.9,0.5
		c-0.3,0.1-0.6,0.1-0.8,0c-0.2-0.1-0.4-0.2-0.6-0.4c-0.1-0.2-0.2-0.4-0.2-0.7c0-0.2,0.1-0.5,0.1-0.8s0.1-0.6,0.2-0.9
		c-0.3,0.4-0.7,0.7-1,1c-0.4,0.3-0.7,0.6-1,0.9c-0.3,0.3-0.7,0.5-1,0.6c-0.3,0.2-0.6,0.2-0.8,0.2c-0.5,0-0.8-0.1-1.1-0.4
		c-0.2-0.3-0.3-0.7-0.3-1.2c0-0.8,0.2-1.6,0.4-2.6c0.3-0.9,0.6-1.9,1.1-2.9c0.5-1,1-2,1.6-2.9c0.6-0.9,1.3-1.8,2-2.5
		c0.7-0.7,1.5-1.3,2.2-1.8c0.8-0.4,1.6-0.6,2.3-0.6c0.5,0,1,0.2,1.4,0.4C28.1,11.4,28.3,11.8,28.3,12.4z M24,14.8
		c0.6-0.2,1.1-0.4,1.5-0.8c0.4-0.4,0.7-0.8,0.9-1.3c0.1-0.2,0.1-0.4,0-0.7c-0.1-0.2-0.3-0.3-0.8-0.1c-0.4,0.1-0.7,0.5-1.2,1
		c-0.4,0.5-0.8,1.1-1.3,1.8c-0.4,0.7-0.9,1.5-1.3,2.3c-0.4,0.8-0.8,1.6-1.1,2.4c-0.3,0.8-0.6,1.5-0.8,2.1c-0.2,0.6-0.3,1.1-0.4,1.5
		c0,0.3,0,0.4,0.2,0.3c0.2-0.1,0.4-0.2,0.7-0.5c0.3-0.2,0.6-0.5,0.9-0.9c0.3-0.4,0.6-0.7,0.9-1.1c0.3-0.9,0.7-1.9,1.2-2.8
		c0.4-1,0.8-1.9,1.2-2.7C24.4,15.2,24.1,15.1,24,14.8z"/>
	<path class="st1" d="M32.4,23.6c0.1-0.6,0.3-1.1,0.5-1.7c0.2-0.6,0.4-1.2,0.6-1.8c-0.4,0.5-0.8,1-1.2,1.5c-0.3,0.5-0.7,0.9-1,1.3
		c-0.3,0.4-0.7,0.8-1,1.1c-0.4,0.3-0.8,0.7-1.2,1c-0.3,0.2-0.6,0.4-0.9,0.4c-0.3,0-0.6,0-0.9-0.1c-0.3-0.1-0.4-0.4-0.6-0.6
		s-0.1-0.6,0-1.1c0.2-0.9,0.5-1.9,0.9-2.9s0.8-2,1.2-3c0.4-1,0.9-2,1.4-3s1-2,1.5-2.9c0.2-0.4,0.5-0.6,0.8-0.8
		c0.3-0.1,0.6-0.2,0.9-0.2c0.3,0,0.5,0.1,0.7,0.2s0.3,0.3,0.2,0.4l-4.2,10c-0.2,0.6-0.4,1-0.3,1.2c0,0.2,0.1,0.2,0.3,0.1
		c0.2-0.2,0.5-0.4,0.8-0.8c0.3-0.4,0.7-0.9,1.2-1.5c0.4-0.6,0.9-1.2,1.4-1.9c0.5-0.7,1-1.4,1.5-2.1c0.4-0.8,0.7-1.6,1.1-2.4
		c0.4-0.8,0.8-1.5,1.2-2.3c0.2-0.4,0.5-0.6,0.8-0.8c0.3-0.1,0.6-0.2,0.9-0.2c0.3,0,0.5,0.1,0.7,0.2s0.3,0.3,0.2,0.4l-4.2,10
		c-0.2,0.6-0.4,1-0.3,1.2c0,0.2,0.1,0.2,0.3,0c0.2-0.2,0.5-0.5,0.9-0.9c0.4-0.4,0.8-0.9,1.2-1.5c0.5-0.6,0.9-1.3,1.5-2
		c0.5-0.7,1-1.4,1.6-2.1c0,0,0,0.1,0.1,0.2c0,0.1,0.1,0.3,0.1,0.5c0,0.2,0,0.4-0.1,0.7c-0.1,0.3-0.2,0.5-0.5,0.8
		c-0.6,0.8-1.2,1.5-1.6,2.1c-0.5,0.6-0.9,1.2-1.3,1.7c-0.4,0.5-0.8,1-1.2,1.4c-0.4,0.4-0.9,0.9-1.4,1.3c-0.3,0.2-0.6,0.4-0.9,0.4
		c-0.3,0-0.6,0-0.9-0.1c-0.2-0.1-0.4-0.4-0.6-0.6S32.2,24.1,32.4,23.6z"/>
	<path class="st1" d="M42.8,17l2.5-3.7c0.1-0.1,0.2-0.3,0.4-0.5c0.2-0.3,0.4-0.6,0.7-0.9c0.3-0.3,0.6-0.6,0.9-0.8
		c0.3-0.2,0.6-0.3,0.9-0.3c0.4,0,0.6,0.2,0.8,0.4c0.1,0.2,0.1,0.5,0.1,0.8c0,0.3-0.1,0.8-0.4,1.4c-0.2,0.6-0.5,1.2-0.8,1.9
		c-0.3,0.7-0.6,1.3-0.9,2s-0.5,1.2-0.6,1.7c-0.4,0.9-0.5,1.5-0.3,1.7s0.4,0.1,0.8-0.3c0.4-0.3,1-0.9,1.6-1.7c0.6-0.8,1.3-1.6,2-2.5
		c0,0,0,0.1,0.1,0.2c0,0.1,0.1,0.3,0,0.5c0,0.2-0.1,0.4-0.1,0.7s-0.2,0.5-0.5,0.8c-0.9,1.2-1.8,2.1-2.6,2.9
		c-0.9,0.8-1.8,1.1-2.7,1.1c-0.5,0-0.8-0.2-1.1-0.5c-0.3-0.3-0.4-0.8-0.3-1.5c0-0.2,0.1-0.5,0.2-0.9c0.1-0.4,0.3-0.8,0.5-1.2
		c0.2-0.4,0.4-0.9,0.5-1.3c0.2-0.4,0.3-0.8,0.5-1.2c0.2-0.5,0.3-0.8,0.2-0.8c-0.1,0-0.2,0.1-0.4,0.3c-0.2,0.2-0.4,0.5-0.6,0.8
		c-0.2,0.3-0.4,0.5-0.5,0.7c-0.2,0.3-0.4,0.6-0.6,0.9c-0.2,0.4-0.5,0.7-0.7,1.1c-0.2,0.4-0.5,0.7-0.7,1.1s-0.5,0.7-0.7,1l-0.4,1.1
		C40.5,23,40.2,23.6,40,24c-0.2,0.4-0.5,0.8-0.7,1c-0.2,0.2-0.4,0.4-0.6,0.4c-0.2,0.1-0.4,0.1-0.7,0.1c-0.3,0-0.6-0.2-0.7-0.5
		c-0.1-0.3-0.1-0.7,0.1-1.3c0.3-0.8,0.6-1.7,1-2.7c0.4-1,0.8-2,1.2-3.1c0.4-1,0.9-2.1,1.4-3.2c0.5-1.1,1-2.1,1.5-3
		c0.2-0.4,0.5-0.7,0.8-0.8c0.3-0.1,0.6-0.2,0.9-0.2c0.3,0,0.5,0.1,0.7,0.2c0.2,0.1,0.3,0.3,0.2,0.4L42.8,17z"/>
	<path class="st1" d="M52.6,25.2c-0.3,0.2-0.7,0.3-1.1,0.4c-0.5,0.1-0.9,0.1-1.4,0c-0.5-0.1-0.8-0.4-1.2-0.8c-0.3-0.4-0.5-1.1-0.6-2
		c0-0.8,0.1-1.6,0.3-2.6c0.3-0.9,0.6-1.9,1.1-2.8c0.5-0.9,1-1.8,1.6-2.7c0.6-0.9,1.3-1.6,2-2.2c0.7-0.6,1.5-1.1,2.2-1.4
		c0.8-0.3,1.5-0.4,2.3-0.2c0.4,0.1,0.6,0.2,0.8,0.4s0.3,0.4,0.4,0.6c0.1,0.2,0.1,0.5,0.1,0.7c0,0.2,0,0.4,0,0.6
		c-0.1,0.9-0.4,1.7-1,2.6c-0.6,0.8-1.3,1.6-2.1,2.2c-0.8,0.6-1.6,1.1-2.4,1.4c-0.8,0.3-1.5,0.3-2.1,0.1c-0.4,1.1-0.7,2.1-0.7,2.9
		c0,0.7,0.1,1.2,0.4,1.4c0.3,0.2,0.6,0.2,1.1,0.1s1-0.5,1.6-1c0.6-0.5,1.2-1,1.9-1.7c0.6-0.6,1.2-1.4,1.8-2.2
		c0.6-0.9,1.2-1.7,1.9-2.5c0,0,0,0.1,0.1,0.2c0,0.1,0.1,0.3,0.1,0.5c0,0.2,0,0.4-0.1,0.7s-0.2,0.5-0.5,0.8c-0.6,0.8-1.2,1.6-1.8,2.2
		c-0.6,0.7-1.1,1.2-1.6,1.8c-0.5,0.5-1.1,1-1.6,1.5C53.8,24.4,53.2,24.8,52.6,25.2z M56.7,11.9c-0.4,0.1-0.7,0.4-1.2,0.9
		c-0.4,0.4-0.8,1-1.2,1.6c-0.4,0.6-0.8,1.3-1.2,2c-0.4,0.7-0.7,1.4-1,2.1c0.5-0.2,1.1-0.5,1.6-0.9c0.6-0.4,1.1-0.9,1.6-1.4
		c0.5-0.5,0.9-1.1,1.3-1.6c0.4-0.6,0.6-1.1,0.7-1.6c0-0.1,0-0.2,0.1-0.4c0-0.1,0-0.3,0-0.4s-0.1-0.2-0.2-0.3S56.9,11.8,56.7,11.9z"
		/>
	<path class="st1" d="M61.8,17.2c0.9-1.2,1.7-2.2,2.3-3.1c0.7-0.8,1.2-1.5,1.7-2c0.5-0.5,0.9-0.8,1.2-1c0.3-0.2,0.6-0.3,0.8-0.3
		c0.7,0,1,0.5,0.9,1.4c0,0.4-0.1,0.8-0.3,1.3c-0.2,0.5-0.4,1.1-0.7,1.8c-0.3,0.7-0.7,1.6-1.1,2.6c-0.4,1-0.9,2.2-1.5,3.6
		c-0.2,0.6-0.4,1-0.3,1.2c0,0.2,0.1,0.2,0.3,0c0.2-0.2,0.5-0.4,0.9-0.9c0.4-0.4,0.8-0.9,1.2-1.5c0.5-0.6,0.9-1.3,1.5-2
		c0.5-0.7,1-1.4,1.6-2.1c0,0,0,0.1,0.1,0.3c0,0.1,0,0.3,0,0.5c0,0.2-0.1,0.4-0.1,0.7c-0.1,0.3-0.2,0.5-0.5,0.8
		c-0.6,0.8-1.2,1.5-1.6,2.1c-0.5,0.6-0.9,1.2-1.3,1.7c-0.4,0.5-0.8,1-1.2,1.4c-0.4,0.4-0.9,0.9-1.4,1.3c-0.3,0.2-0.6,0.4-0.9,0.4
		c-0.3,0-0.6,0-0.8-0.1c-0.2-0.1-0.4-0.4-0.5-0.6s-0.1-0.6,0-1.1c0.3-1.1,0.7-2.2,1.1-3.5c0.5-1.2,1-2.6,1.6-3.9
		c0.2-0.4,0.2-0.7,0.1-0.8c-0.1-0.1-0.3,0-0.6,0.4c-0.2,0.3-0.5,0.6-0.8,0.9c-0.3,0.4-0.6,0.7-0.9,1.1c-0.3,0.4-0.6,0.8-1,1.2
		c-0.3,0.4-0.6,0.8-0.9,1.2l-0.8,1.9C59.5,23,59.2,23.6,59,24c-0.2,0.4-0.5,0.8-0.7,1c-0.2,0.2-0.4,0.4-0.6,0.4
		c-0.2,0.1-0.4,0.1-0.7,0.1c-0.3,0-0.6-0.2-0.7-0.5c-0.1-0.3-0.1-0.7,0.1-1.3c0.3-0.8,0.6-1.7,1-2.7c0.4-1,0.8-2,1.2-3.1
		c0.4-1,0.9-2.1,1.4-3.2c0.5-1.1,1-2.1,1.5-3c0.2-0.4,0.5-0.7,0.8-0.8c0.3-0.1,0.6-0.2,0.9-0.2c0.3,0,0.5,0.1,0.7,0.2
		c0.2,0.1,0.3,0.3,0.2,0.4L61.8,17.2z"/>
	<path class="st1" d="M92.1,0.5c0.7-0.1,1.2,0,1.5,0.2C93.9,1,94,1.3,94,1.5c0,0.3,0,0.6-0.1,0.9c-0.1,0.3-0.2,0.6-0.3,0.8
		c-0.4,0.8-0.8,1.7-1.3,2.6s-1,2-1.6,3c-0.6,1-1.1,2.1-1.7,3.3s-1.2,2.2-1.7,3.4c1-0.2,2.1-0.3,3.1-0.4s2.2-0.2,3.4-0.2
		c0.5-1.2,1.1-2.5,1.7-3.8c0.6-1.3,1.2-2.5,1.7-3.8c0.6-1.2,1.1-2.4,1.6-3.5c0.5-1.1,1-2.1,1.4-3c0.5,0,0.9,0.2,1.2,0.4
		c0.3,0.2,0.5,0.5,0.6,0.8c0.1,0.3,0.1,0.6,0.1,1c0,0.3-0.1,0.7-0.2,1c-0.4,1.1-0.9,2.4-1.4,3.7s-1.1,2.8-1.7,4.3
		c-0.6,1.5-1.2,2.9-1.8,4.4c-0.6,1.5-1.2,2.9-1.8,4.2c-0.6,1.3-1.1,2.6-1.5,3.7c-0.5,1.1-0.8,2-1.1,2.7c-0.5-0.1-1-0.3-1.5-0.5
		c-0.4-0.2-0.8-0.5-1-0.9c-0.2-0.4-0.4-0.8-0.3-1.3c0-0.5,0.2-1.2,0.6-1.9c0.3-0.6,0.6-1.3,1-2.3s0.9-2,1.4-3.2
		c-1.2,0.2-2.5,0.4-3.7,0.7c-1.2,0.3-2.4,0.6-3.6,1c-1,1.9-1.9,3.6-2.7,5.1s-1.5,2.8-1.9,3.7c-0.5-0.1-1-0.3-1.4-0.5
		c-0.4-0.2-0.7-0.5-0.9-0.9c-0.2-0.4-0.2-0.8-0.2-1.3c0.1-0.5,0.3-1.2,0.8-1.9c0.2-0.3,0.4-0.7,0.6-1.1c0.2-0.4,0.5-0.9,0.8-1.4
		c-1,0.3-1.9,0.7-2.8,1C77,21.7,76,22,75.1,22.3c0.2-0.6,0.4-1.1,0.7-1.6c0.2-0.5,0.5-0.9,0.9-1.4s0.8-0.8,1.4-1.1
		c0.5-0.3,1.2-0.6,2.1-0.9c0.5-0.2,0.9-0.3,1.4-0.4c0.5-0.1,0.9-0.3,1.3-0.4c0.7-1.2,1.3-2.4,2.1-3.7c0.7-1.3,1.4-2.6,2.2-3.9
		c0.7-1.3,1.4-2.5,2.1-3.7c0.7-1.2,1.3-2.3,2-3.3c-1.3,0.3-2.4,0.7-3.3,1.3c-1,0.6-1.8,1.2-2.5,2c-0.7,0.7-1.3,1.5-1.7,2.4
		s-0.8,1.7-1,2.5c-0.2,0.8-0.4,1.6-0.4,2.3c0,0.7,0,1.4,0.1,1.9c-0.9-0.1-1.7-0.3-2.3-0.7c-0.6-0.4-1-0.9-1.2-1.5s-0.2-1.3-0.1-2
		c0.1-0.7,0.4-1.5,0.9-2.3c0.6-0.9,1.3-1.8,2.1-2.6c0.8-0.8,1.8-1.5,2.9-2.1c1.1-0.6,2.2-1.1,3.4-1.5C89.4,1,90.7,0.7,92.1,0.5z"/>
	<path class="st1" d="M107.8,12.4c-0.1,0.7-0.4,1.3-0.9,1.8c0.4,0.1,0.5,0.2,0.5,0.4c-0.5,1.2-0.9,2.4-1.5,3.6
		c-0.5,1.1-1,2.3-1.4,3.4c-0.2,0.6-0.4,1-0.3,1.2c0,0.2,0.1,0.2,0.3,0c0.2-0.2,0.5-0.4,0.8-0.9s0.8-0.9,1.2-1.5
		c0.5-0.6,0.9-1.3,1.4-2c0.5-0.7,1-1.4,1.5-2.1c0,0,0,0.1,0.1,0.3c0,0.1,0,0.3,0,0.5c0,0.2-0.1,0.4-0.1,0.7s-0.2,0.5-0.5,0.8
		c-0.6,0.8-1.2,1.5-1.6,2.1c-0.5,0.6-0.9,1.2-1.3,1.7c-0.4,0.5-0.8,1-1.2,1.4c-0.4,0.4-0.9,0.9-1.4,1.3c-0.3,0.2-0.6,0.4-0.9,0.5
		c-0.3,0.1-0.6,0.1-0.8,0c-0.2-0.1-0.4-0.2-0.6-0.4c-0.1-0.2-0.2-0.4-0.2-0.7c0-0.2,0.1-0.5,0.1-0.8s0.1-0.6,0.2-0.9
		c-0.3,0.4-0.7,0.7-1,1c-0.4,0.3-0.7,0.6-1,0.9c-0.3,0.3-0.7,0.5-1,0.6c-0.3,0.2-0.6,0.2-0.8,0.2c-0.5,0-0.8-0.1-1.1-0.4
		c-0.2-0.3-0.3-0.7-0.3-1.2c0-0.8,0.2-1.6,0.4-2.6c0.3-0.9,0.6-1.9,1.1-2.9c0.5-1,1-2,1.6-2.9c0.6-0.9,1.3-1.8,2-2.5
		c0.7-0.7,1.5-1.3,2.2-1.8c0.8-0.4,1.6-0.6,2.3-0.6c0.5,0,1,0.2,1.4,0.4C107.7,11.4,107.9,11.8,107.8,12.4z M103.5,14.8
		c0.6-0.2,1.1-0.4,1.5-0.8c0.4-0.4,0.7-0.8,0.9-1.3c0.1-0.2,0.1-0.4,0-0.7c-0.1-0.2-0.3-0.3-0.8-0.1c-0.4,0.1-0.7,0.5-1.2,1
		c-0.4,0.5-0.8,1.1-1.3,1.8c-0.4,0.7-0.8,1.5-1.3,2.3c-0.4,0.8-0.8,1.6-1.1,2.4c-0.3,0.8-0.6,1.5-0.8,2.1c-0.2,0.6-0.3,1.1-0.4,1.5
		c0,0.3,0,0.4,0.2,0.3c0.2-0.1,0.4-0.2,0.7-0.5c0.3-0.2,0.6-0.5,0.9-0.9c0.3-0.4,0.6-0.7,0.9-1.1c0.3-0.9,0.7-1.9,1.2-2.8
		c0.4-1,0.8-1.9,1.2-2.7C103.9,15.2,103.6,15.1,103.5,14.8z"/>
	<path class="st1" d="M109.8,21.5c-0.2,0.6-0.4,1-0.3,1.2c0,0.2,0.1,0.2,0.3,0c0.2-0.2,0.5-0.4,0.9-0.9c0.4-0.4,0.8-0.9,1.2-1.5
		c0.5-0.6,0.9-1.3,1.5-2c0.5-0.7,1-1.4,1.6-2.1c0,0,0,0.1,0.1,0.3c0,0.1,0,0.3,0,0.5c0,0.2-0.1,0.4-0.1,0.7
		c-0.1,0.3-0.2,0.5-0.5,0.8c-0.6,0.8-1.2,1.5-1.6,2.1c-0.5,0.6-0.9,1.2-1.3,1.7c-0.4,0.5-0.8,1-1.2,1.4c-0.4,0.4-0.9,0.9-1.4,1.3
		c-0.3,0.2-0.6,0.4-0.9,0.4c-0.3,0-0.6,0-0.9-0.1c-0.2-0.1-0.4-0.4-0.6-0.6s-0.1-0.6,0-1.1c0.2-0.8,0.5-1.6,0.8-2.4
		c0.3-0.8,0.6-1.7,1-2.7c0.5-1.2,1-2.5,1.5-3.7s1-2.5,1.5-3.7c0.5-1.2,1-2.2,1.4-3.2c0.4-1,0.8-1.8,1.2-2.5c0.2-0.4,0.5-0.6,0.8-0.8
		c0.3-0.1,0.6-0.2,0.9-0.2c0.3,0,0.5,0.1,0.7,0.2c0.2,0.1,0.3,0.3,0.2,0.4L109.8,21.5z"/>
	<path class="st1" d="M115.2,21.5c-0.2,0.6-0.4,1-0.3,1.2c0,0.2,0.1,0.2,0.3,0c0.2-0.2,0.5-0.4,0.9-0.9c0.4-0.4,0.8-0.9,1.2-1.5
		c0.5-0.6,0.9-1.3,1.5-2c0.5-0.7,1-1.4,1.6-2.1c0,0,0,0.1,0.1,0.3c0,0.1,0,0.3,0,0.5c0,0.2-0.1,0.4-0.1,0.7
		c-0.1,0.3-0.2,0.5-0.5,0.8c-0.6,0.8-1.2,1.5-1.6,2.1c-0.5,0.6-0.9,1.2-1.3,1.7c-0.4,0.5-0.8,1-1.2,1.4c-0.4,0.4-0.9,0.9-1.4,1.3
		c-0.3,0.2-0.6,0.4-0.9,0.4c-0.3,0-0.6,0-0.9-0.1c-0.2-0.1-0.4-0.4-0.6-0.6s-0.1-0.6,0-1.1c0.2-0.8,0.5-1.6,0.8-2.4
		c0.3-0.8,0.6-1.7,1-2.7c0.5-1.2,1-2.5,1.5-3.7s1-2.5,1.5-3.7c0.5-1.2,1-2.2,1.4-3.2c0.4-1,0.8-1.8,1.2-2.5c0.2-0.4,0.5-0.6,0.8-0.8
		c0.3-0.1,0.6-0.2,0.9-0.2c0.3,0,0.5,0.1,0.7,0.2c0.2,0.1,0.3,0.3,0.2,0.4L115.2,21.5z"/>
	<path class="st1" d="M122.3,25.2c-0.3,0.2-0.7,0.3-1.1,0.4c-0.5,0.1-0.9,0.1-1.4,0c-0.5-0.1-0.8-0.4-1.2-0.8
		c-0.3-0.4-0.5-1.1-0.6-2c0-0.8,0.1-1.6,0.3-2.6c0.3-0.9,0.6-1.9,1.1-2.8c0.5-0.9,1-1.8,1.6-2.7c0.6-0.9,1.3-1.6,2-2.2
		c0.7-0.6,1.5-1.1,2.2-1.4c0.8-0.3,1.5-0.4,2.3-0.2c0.4,0.1,0.6,0.2,0.8,0.4s0.3,0.4,0.4,0.6c0.1,0.2,0.1,0.5,0.1,0.7
		c0,0.2,0,0.4,0,0.6c-0.1,0.9-0.4,1.7-1,2.6c-0.6,0.8-1.3,1.6-2.1,2.2c-0.8,0.6-1.6,1.1-2.4,1.4c-0.8,0.3-1.5,0.3-2.1,0.1
		c-0.4,1.1-0.7,2.1-0.7,2.9c0,0.7,0.1,1.2,0.4,1.4c0.3,0.2,0.6,0.2,1.1,0.1s1-0.5,1.6-1c0.6-0.5,1.2-1,1.9-1.7
		c0.6-0.6,1.2-1.4,1.8-2.2c0.6-0.9,1.2-1.7,1.9-2.5c0,0,0,0.1,0.1,0.2c0,0.1,0.1,0.3,0.1,0.5c0,0.2,0,0.4-0.1,0.7s-0.2,0.5-0.5,0.8
		c-0.6,0.8-1.2,1.6-1.8,2.2c-0.6,0.7-1.1,1.2-1.6,1.8c-0.5,0.5-1.1,1-1.6,1.5C123.4,24.4,122.9,24.8,122.3,25.2z M126.4,11.9
		c-0.4,0.1-0.7,0.4-1.2,0.9c-0.4,0.4-0.8,1-1.2,1.6c-0.4,0.6-0.8,1.3-1.2,2c-0.4,0.7-0.7,1.4-1,2.1c0.5-0.2,1.1-0.5,1.6-0.9
		c0.6-0.4,1.1-0.9,1.6-1.4c0.5-0.5,0.9-1.1,1.3-1.6c0.4-0.6,0.6-1.1,0.7-1.6c0-0.1,0-0.2,0.1-0.4c0-0.1,0-0.3,0-0.4
		s-0.1-0.2-0.2-0.3S126.6,11.8,126.4,11.9z"/>
	<path class="st1" d="M134.2,23.7c0.6-0.6,1.2-1.3,1.9-2.1c0.7-0.8,1.5-1.8,2.5-3c0.3-0.4,0.6-0.7,0.8-1.1c0.3-0.4,0.5-0.8,0.8-1.2
		c0,0,0,0.1,0.1,0.2c0,0.1,0.1,0.3,0.1,0.5c0,0.2,0,0.4-0.1,0.7s-0.2,0.5-0.5,0.8l-0.5,0.6c-1.2,1.6-2.3,3-3.3,4s-1.9,1.9-2.7,2.6
		l-2,4.7c-0.5,0.9-1,1.6-1.5,2c-0.5,0.4-1.1,0.6-1.6,0.6c-0.5,0-0.9-0.1-1.2-0.5c-0.3-0.3-0.5-0.7-0.6-1.2c-0.1-0.5,0-1,0.3-1.6
		c0.3-0.6,0.8-1.2,1.6-1.7l1.8-1.2c0.4-1.1,0.9-2.1,1.3-3.2c0.4-1.1,0.9-2.1,1.3-3.2c-0.4,0.5-0.7,1-1.1,1.4s-0.7,0.8-1,1.2
		c-0.3,0.4-0.7,0.7-1,1s-0.7,0.7-1.1,1c-0.3,0.2-0.6,0.4-0.9,0.4c-0.3,0-0.6,0-0.9-0.1c-0.3-0.1-0.4-0.4-0.6-0.6s-0.1-0.6,0-1.1
		c0.2-0.9,0.5-1.9,0.9-2.9s0.8-2,1.2-3c0.4-1,0.9-2,1.4-3s1-2,1.5-2.9c0.2-0.4,0.5-0.6,0.8-0.8c0.3-0.1,0.6-0.2,0.9-0.2
		c0.3,0,0.5,0.1,0.7,0.2s0.3,0.3,0.2,0.4l-4.2,10c-0.2,0.6-0.4,1-0.3,1.2c0,0.2,0.1,0.2,0.3,0.1c0.2-0.1,0.5-0.4,0.8-0.8
		c0.3-0.4,0.7-0.9,1.2-1.5c0.4-0.6,0.9-1.2,1.4-1.9s1-1.4,1.5-2.1c0.4-0.8,0.7-1.6,1.1-2.4c0.4-0.8,0.8-1.6,1.2-2.4
		c0.2-0.4,0.5-0.6,0.8-0.8c0.3-0.1,0.6-0.2,0.9-0.2c0.3,0,0.5,0.1,0.7,0.2c0.2,0.1,0.2,0.3,0.2,0.4L134.2,23.7z M129.4,28.5
		c-0.1,0.1-0.2,0.1-0.3,0.2c-0.6,0.5-1.1,0.9-1.3,1.4s-0.3,0.8-0.3,1c0,0.2,0.2,0.3,0.4,0.3c0.2,0,0.4-0.3,0.6-0.7L129.4,28.5z"/>
</g>
</svg>
